<svg width="478" height="482" viewBox="0 0 478 482" fill="none" xmlns="http://www.w3.org/2000/svg">
    <g id="otter-baby">
        <path id="path80" d="M336.274 115.154C335.179 117.594 333.439 123.24 338.034 127.836C342.63 132.432 348.276 130.69 350.716 129.596L347.564 118.303L336.274 115.154" fill="#AC4A55" />
        <path id="path82" d="M423.739 172.937C410.552 152.816 395.619 137.994 386.619 129.968C381.676 125.569 378.518 123.204 378.41 123.124L377.608 124.209C377.717 124.289 380.952 126.713 385.979 131.206C394.952 139.224 409.646 153.868 422.632 173.706C427.699 181.434 432.499 189.937 436.606 199.157L437.832 198.609C433.699 189.308 428.846 180.732 423.739 172.937" fill="#F1E8E1" />
        <path id="path84" d="M377.907 138.933C374.783 132.786 372.382 129.585 372.31 129.49L371.241 130.313C371.312 130.405 373.643 133.517 376.69 139.498C381.274 148.508 387.472 164.061 390.072 185.782C391.112 194.458 391.579 204.105 391.125 214.722L392.472 214.781C392.926 204.088 392.459 194.368 391.406 185.621C388.792 163.765 382.552 148.074 377.907 138.933" fill="#F1E8E1" />
        <path id="path86" d="M292.932 42.1302C285.139 37.0222 276.563 32.1729 267.26 28.0355L266.712 29.2676C275.932 33.3689 284.434 38.1742 292.162 43.2355C311.996 56.2289 326.642 70.9222 334.662 79.8915C339.155 84.9169 341.58 88.1515 341.66 88.2608L342.745 87.4595C342.664 87.3502 340.3 84.1915 335.901 79.2555C327.875 70.2488 313.055 55.3182 292.932 42.1302" fill="#F1E8E1" />
        <path id="path88" d="M314.694 82.5594C306.488 79.5061 294.907 76.1887 280.25 74.4501C271.583 73.4207 261.847 72.9422 251.088 73.4009L251.147 74.7488C261.764 74.2888 271.412 74.7515 280.088 75.7861C301.804 78.3768 317.36 84.5888 326.372 89.1795C332.352 92.2248 335.463 94.5568 335.556 94.6288L336.378 93.5594C336.183 93.4101 333.032 91.0208 326.958 87.9195C323.706 86.2595 319.632 84.3981 314.694 82.5594" fill="#F1E8E1" />
        <path id="path90" d="M317.304 236.063C313.118 240.249 308.335 243.467 303.234 245.743C294.416 249.677 284.639 250.763 275.291 248.99C271.675 248.303 268.127 247.186 264.722 245.646H247.838C239.962 245.646 233.182 250.258 229.994 256.917C230.555 258.349 231.039 259.819 231.42 261.33C232.206 264.442 230.835 267.482 228.404 269.143C230.139 278.302 238.174 285.231 247.838 285.231H255.559L202.26 338.53C199.644 341.146 196.822 343.429 193.848 345.382C193.275 346.657 192.55 347.878 191.64 349.005C191.266 349.471 190.866 349.925 190.432 350.358L174.084 366.705C167.735 373.056 157.559 373.213 150.995 367.215C150.807 367.045 150.611 366.886 150.43 366.705C146.074 362.349 144.639 356.19 146.092 350.631C142.884 349.422 139.771 347.891 136.8 346.038L132.907 349.062L113.406 364.208C105.631 370.245 95.6243 360.238 101.662 352.463L116.807 332.962L119.832 329.069C117.978 326.098 116.447 322.985 115.239 319.775C109.679 321.23 103.522 319.795 99.1643 315.439C98.9816 315.258 98.8243 315.062 98.6523 314.874C92.6549 308.31 92.8136 298.134 99.1643 291.785L115.512 275.437C115.944 275.003 116.398 274.603 116.863 274.227C117.991 273.321 119.212 272.594 120.487 272.021C122.442 269.046 124.724 266.225 127.339 263.609L180.639 210.31V218.031C180.639 227.695 187.568 235.73 196.726 237.465C198.387 235.035 201.427 233.662 204.539 234.449C206.051 234.83 207.522 235.314 208.952 235.875C215.612 232.687 220.223 225.907 220.223 218.031V201.147C218.683 197.742 217.566 194.194 216.879 190.578C215.106 181.231 216.194 171.454 220.127 162.635C222.402 157.534 225.62 152.751 229.806 148.566C234.45 143.922 239.824 140.459 245.559 138.166C245.307 135.147 246.33 132.042 248.64 129.731C252.806 125.567 259.558 125.567 263.722 129.731C265.211 131.221 266.158 133.042 266.583 134.957C277.39 135.774 287.968 140.301 296.232 148.566L317.304 169.637C335.646 187.979 335.646 217.719 317.304 236.063V236.063ZM332.268 165.427L300.442 133.601C287.494 120.653 280.6 103.945 279.754 86.9915C261.279 89.4741 243.439 97.7981 229.24 111.998L96.5736 244.663C95.0123 246.225 93.5469 247.845 92.1269 249.49L91.9363 249.301L21.3456 319.891C11.3643 329.873 11.3643 346.055 21.3456 356.037C31.327 366.018 47.5096 366.018 57.4909 356.037L76.1656 337.362C77.5269 341.074 79.131 344.717 81.0083 348.255C85.0203 355.819 90.2029 362.926 96.5736 369.295H96.575C102.906 375.627 109.966 380.785 117.478 384.786C121.06 386.694 124.747 388.325 128.507 389.703L109.832 408.378C99.8523 418.359 99.8523 434.542 109.832 444.523C119.814 454.505 135.996 454.505 145.978 444.523L216.568 373.931L216.379 373.742C218.024 372.322 219.643 370.857 221.206 369.295L353.871 236.629C368.071 222.431 376.395 204.59 378.878 186.114C361.924 185.269 345.216 178.375 332.268 165.427Z" fill="#746259" />
        <path id="path92" d="M306.26 202.434C302.096 198.269 302.096 191.517 306.26 187.352C310.426 183.188 317.179 183.188 321.343 187.352C325.508 191.517 325.508 198.269 321.343 202.434C317.179 206.598 310.426 206.598 306.26 202.434ZM253.223 203C252.324 202.101 251.595 201.1 251.023 200.037L249.786 200.381L248.904 197.225L247.464 192.065L239.15 189.745L239.496 188.51C238.432 187.937 237.43 187.206 236.531 186.308C231.572 181.348 231.572 173.306 236.531 168.346C241.492 163.385 249.534 163.385 254.495 168.346C255.359 169.209 256.062 170.169 256.624 171.186C259.832 170.228 263.451 171.014 265.983 173.548H265.984C268.518 176.081 269.304 179.7 268.344 182.908C269.362 183.47 270.323 184.173 271.186 185.037C276.146 189.997 276.146 198.04 271.186 203C268.383 205.802 264.596 207.018 260.938 206.654C258.122 206.373 255.38 205.156 253.223 203V203ZM240.284 151.264L242.192 153.17C241.686 153.674 241.41 154.345 241.41 155.058C241.41 155.77 241.686 156.439 242.192 156.945C243.196 157.953 244.959 157.95 245.966 156.945L247.871 158.85C246.858 159.865 245.51 160.422 244.078 160.422C242.644 160.422 241.296 159.863 240.284 158.85C239.271 157.838 238.712 156.492 238.712 155.058C238.712 153.624 239.271 152.277 240.284 151.264V151.264ZM280.68 191.66L282.586 193.566C282.082 194.07 281.806 194.741 281.806 195.454C281.806 196.166 282.082 196.837 282.586 197.341C283.592 198.348 285.355 198.349 286.36 197.341L288.267 199.248C287.255 200.261 285.908 200.818 284.474 200.818C283.042 200.818 281.694 200.262 280.68 199.248C279.667 198.234 279.108 196.886 279.108 195.454C279.108 194.021 279.667 192.674 280.68 191.66V191.66ZM317.304 169.637L296.232 148.566C287.968 140.301 277.39 135.774 266.583 134.957C259.475 134.418 252.271 135.484 245.559 138.166C239.824 140.46 234.45 143.922 229.806 148.566C225.62 152.752 222.402 157.534 220.127 162.636C216.194 171.454 215.106 181.231 216.879 190.578C217.566 194.194 218.683 197.742 220.223 201.148C222.492 206.165 225.682 210.869 229.806 214.993L250.876 236.064C255.002 240.188 259.704 243.377 264.722 245.646C268.127 247.186 271.675 248.304 275.291 248.99C284.639 250.764 294.416 249.677 303.234 245.744C308.335 243.468 313.118 240.249 317.304 236.064C335.646 217.72 335.646 187.98 317.304 169.637" fill="#B28B74" />
        <path id="path94" d="M385.979 131.206C385.139 132.698 384.103 134.107 382.834 135.377C381.352 136.859 379.682 138.037 377.907 138.933C382.552 148.074 388.792 163.765 391.406 185.621C402.406 184.226 413.139 180.254 422.632 173.706C409.646 153.868 394.952 139.224 385.979 131.206Z" fill="#C9AB98" />
        <path id="path96" d="M326.957 87.9196C327.851 86.1596 329.021 84.5063 330.492 83.0356C331.76 81.7663 333.171 80.7303 334.661 79.8916C326.641 70.9223 311.996 56.229 292.161 43.2356C285.617 52.729 281.646 63.4529 280.25 74.4502C294.907 76.1889 306.488 79.5063 314.694 82.5596C319.632 84.3983 323.705 86.2596 326.957 87.9196" fill="#C9AB98" />
        <path id="path98" d="M373.003 140.628C366.936 141.826 360.404 140.078 355.702 135.377C354.347 134.021 353.244 132.509 352.378 130.902L351.175 131.237L350.716 129.596C348.276 130.69 342.63 132.432 338.034 127.836C333.439 123.24 335.179 117.594 336.274 115.154L334.63 114.696L334.967 113.49C333.36 112.626 331.848 111.522 330.492 110.166C325.792 105.466 324.043 98.9328 325.242 92.8662C325.49 91.6088 325.87 90.3756 326.372 89.1796C317.36 84.5889 301.804 78.3769 280.088 75.7862C279.688 79.5089 279.568 83.2556 279.754 86.9916C280.6 103.945 287.494 120.653 300.442 133.601L332.268 165.427C345.216 178.376 361.924 185.269 378.878 186.114C382.611 186.301 386.352 186.182 390.072 185.782C387.472 164.061 381.274 148.508 376.69 139.498C375.492 140 374.259 140.38 373.003 140.628" fill="#C9AB98" />
        <path id="path100" d="M351.283 109.538L346.725 99.0382L354.871 90.8929C356.596 89.1676 358.655 87.9796 360.839 87.3262C359.99 85.7902 358.927 84.3396 357.624 83.0356C351.747 77.1583 343.014 75.9128 335.902 79.2555C340.3 84.1915 342.664 87.3502 342.746 87.4596L341.66 88.2609C341.58 88.1515 339.155 84.9169 334.662 79.8916C333.171 80.7302 331.76 81.7663 330.492 83.0356C329.021 84.5063 327.851 86.1596 326.958 87.9196C333.032 91.0209 336.183 93.4102 336.378 93.5596L335.556 94.629C335.463 94.557 332.352 92.2249 326.372 89.1796C325.87 90.3756 325.489 91.6089 325.241 92.8662C324.043 98.9329 325.792 105.466 330.492 110.166C331.848 111.522 333.36 112.626 334.967 113.49L335.356 112.098L347.452 115.473L348.263 115.7L348.79 115.174L352.235 111.729L351.283 109.538" fill="#DECCC0" />
        <path id="path102" d="M386.619 129.968C389.952 122.857 388.712 114.124 382.834 108.246C381.53 106.942 380.08 105.88 378.541 105.03C377.889 107.214 376.702 109.273 374.976 110.998L366.831 119.143L356.332 114.586L354.14 113.636L350.695 117.081L350.171 117.605L350.396 118.414L353.771 130.514L352.378 130.902C353.244 132.509 354.347 134.021 355.701 135.377C360.404 140.078 366.936 141.826 373.003 140.627C374.259 140.379 375.492 139.999 376.69 139.498C373.643 133.517 371.312 130.405 371.241 130.313L372.31 129.49C372.382 129.585 374.783 132.786 377.907 138.933C379.682 138.037 381.352 136.859 382.834 135.377C384.103 134.107 385.139 132.698 385.979 131.206C380.952 126.713 377.717 124.289 377.608 124.209L378.41 123.124C378.518 123.204 381.676 125.569 386.619 129.968" fill="#DECCC0" />
        <path id="path104" d="M406.459 129.009L403.592 131.869C401.232 134.238 397.392 134.238 395.019 131.869C392.646 129.5 392.646 125.657 395.019 123.289L397.872 120.429C400.246 118.06 404.086 118.06 406.459 120.429C408.832 122.797 408.832 126.64 406.459 129.009ZM345.442 67.9928L342.582 70.8529C340.211 73.2222 336.37 73.2222 334 70.8529C331.632 68.4835 331.632 64.6422 334 62.2729L336.86 59.4129C339.231 57.0435 343.072 57.0435 345.442 59.4129C347.81 61.7822 347.81 65.6235 345.442 67.9928ZM453.152 109.88C451.926 93.5569 445.086 77.5782 432.606 65.0956L400.779 33.2689C388.286 20.7862 372.312 13.9475 355.99 12.7129C345.255 11.9009 334.374 13.5089 324.236 17.5622C315.575 21.0249 307.456 26.2555 300.442 33.2689C297.654 36.0582 295.159 39.0275 292.932 42.1302C313.055 55.3182 327.875 70.2488 335.902 79.2555C343.014 75.9128 351.747 77.1582 357.624 83.0355C358.927 84.3395 359.99 85.7902 360.839 87.3262C365.686 85.8782 371.15 87.0648 374.976 90.8928C378.804 94.7195 379.991 100.185 378.542 105.03C380.08 105.88 381.53 106.942 382.834 108.246C388.712 114.124 389.952 122.857 386.619 129.968C395.619 137.994 410.552 152.815 423.739 172.937C426.846 170.71 429.806 168.215 432.606 165.427C439.619 158.413 444.846 150.294 448.312 141.633C452.366 131.494 453.966 120.614 453.152 109.88" fill="#C9AB98" />
        <path id="path106" d="M247.279 178.941L252.672 173.548C253.815 172.405 255.177 171.62 256.624 171.186C256.061 170.169 255.359 169.209 254.495 168.346C249.533 163.385 241.492 163.385 236.531 168.346C231.572 173.306 231.572 181.348 236.531 186.308C237.429 187.206 238.432 187.937 239.496 188.51L239.876 187.149L248.163 189.461L250.731 186.892L247.279 178.941" fill="#C9AB98" />
        <path id="path108" d="M268.344 182.908C267.912 184.353 267.127 185.716 265.984 186.858L260.59 192.252L252.638 188.8L250.07 191.366L252.292 199.334L252.382 199.657L251.023 200.037C251.595 201.1 252.324 202.101 253.223 203C255.38 205.156 258.122 206.373 260.938 206.654C264.596 207.018 268.383 205.802 271.186 203C276.146 198.04 276.146 189.997 271.186 185.037C270.323 184.173 269.362 183.47 268.344 182.908" fill="#C9AB98" />
        <path id="path110" d="M96.5735 369.295C90.2029 362.926 85.0202 355.819 81.0082 348.255L2.55487 449.272C-4.61313 458.501 7.26554 470.381 16.4962 463.213L117.478 384.786C109.966 380.785 102.906 375.627 96.5749 369.295H96.5735Z" fill="#685246" />
        <path id="path112" d="M328.89 4.82085C325.402 8.31018 323.855 13.0023 324.236 17.5623C334.374 13.5089 345.255 11.9009 355.99 12.7129C355.35 9.82224 353.919 7.07018 351.67 4.82085C345.379 -1.46848 335.18 -1.46848 328.89 4.82085" fill="#685246" />
        <path id="path114" d="M461.046 114.199C458.792 111.95 456.046 110.52 453.152 109.88C453.966 120.614 452.366 131.494 448.312 141.633C452.872 142.014 457.552 140.469 461.046 136.98C467.339 130.689 467.339 120.49 461.046 114.199Z" fill="#685246" />
        <path id="path116" d="M229.806 214.993C225.682 210.869 222.492 206.165 220.223 201.148V218.032C220.223 225.908 215.612 232.688 208.952 235.876C218.571 239.641 226.228 247.3 229.994 256.917C233.182 250.258 239.962 245.646 247.838 245.646H264.722C259.704 243.377 255.002 240.188 250.876 236.064L229.806 214.993" fill="#685246" />
        <path id="path118" d="M228.404 269.144C227.219 269.953 225.788 270.44 224.224 270.44H222.186C223.03 271.028 223.844 271.684 224.596 272.437C231.414 279.253 231.414 290.304 224.596 297.121C217.782 303.936 206.731 303.936 199.915 297.121C194.795 292.001 193.523 284.493 196.092 278.185C192.33 276.558 189.311 273.54 187.684 269.777C181.375 272.348 173.868 271.074 168.75 265.956C161.932 259.14 161.932 248.088 168.75 241.272C175.566 234.457 186.616 234.457 193.432 241.272C194.187 242.026 194.843 242.838 195.43 243.685V241.645C195.43 240.081 195.916 238.65 196.726 237.465C187.568 235.73 180.639 227.696 180.639 218.032V210.31L127.339 263.609C124.724 266.225 122.442 269.046 120.487 272.021C126.639 269.258 134.115 270.384 139.167 275.437C145.699 281.969 145.699 292.561 139.167 299.093L122.819 315.44C120.643 317.616 118.015 319.05 115.239 319.776C116.447 322.985 117.978 326.098 119.832 329.069L116.807 332.962L101.662 352.464C95.6243 360.238 105.631 370.245 113.406 364.208L132.907 349.062L136.8 346.038C139.771 347.892 142.884 349.422 146.092 350.632C146.819 347.854 148.254 345.226 150.43 343.049L166.776 326.702C173.308 320.17 183.9 320.17 190.432 326.702C195.484 331.756 196.611 339.23 193.848 345.382C196.822 343.429 199.644 341.146 202.26 338.53L255.559 285.232H247.838C238.174 285.232 230.139 278.302 228.404 269.144" fill="#685246" />
        <path id="path120" d="M248.64 129.732C246.33 132.042 245.307 135.148 245.559 138.166C252.271 135.484 259.475 134.418 266.583 134.957C266.158 133.042 265.211 131.221 263.722 129.732C259.558 125.568 252.806 125.568 248.64 129.732Z" fill="#685246" />
        <path id="path122" d="M306.26 187.352C302.096 191.517 302.096 198.269 306.26 202.434C310.426 206.598 317.179 206.598 321.343 202.434C325.508 198.269 325.508 191.517 321.343 187.352C317.179 183.188 310.426 183.188 306.26 187.352Z" fill="#685246" />
        <path id="path124" d="M225.134 263.202H214.167V260.506H225.134V263.202ZM204.698 263.078L202.792 261.172L216.194 247.769L218.099 249.677L204.698 263.078ZM202.667 240.737H205.363V251.702H202.667V240.737ZM231.42 261.33C231.039 259.82 230.555 258.349 229.994 256.917C226.228 247.3 218.571 239.641 208.952 235.876C207.522 235.314 206.051 234.83 204.539 234.449C201.427 233.662 198.387 235.036 196.726 237.465C195.916 238.65 195.43 240.081 195.43 241.645V243.685C200.15 250.488 199.494 259.893 193.432 265.956C191.735 267.652 189.775 268.925 187.684 269.777C189.311 273.54 192.33 276.558 196.092 278.185C196.944 276.094 198.218 274.134 199.915 272.437C205.976 266.376 215.382 265.718 222.186 270.44H224.224C225.788 270.44 227.219 269.953 228.404 269.144C230.835 267.482 232.206 264.442 231.42 261.33" fill="#C7BBCA" />
        <path id="path126" d="M216.194 247.769L202.792 261.172L204.698 263.078L218.099 249.677L216.194 247.769Z" fill="#AE9FB6" />
        <path id="path128" d="M205.363 240.737H202.667V251.702H205.363V240.737Z" fill="#AE9FB6" />
        <path id="path130" d="M214.167 263.202H225.134V260.506H214.167V263.202Z" fill="#AE9FB6" />
        <path id="path132" d="M342.581 70.8529L345.441 67.9929C347.809 65.6235 347.809 61.7822 345.441 59.4129C343.072 57.0436 339.231 57.0436 336.86 59.4129L334 62.2729C331.632 64.6423 331.632 68.4835 334 70.8529C336.369 73.2222 340.211 73.2222 342.581 70.8529Z" fill="#4B4245" />
        <path id="path134" d="M406.459 120.429C404.086 118.06 400.246 118.06 397.872 120.429L395.019 123.289C392.646 125.657 392.646 129.499 395.019 131.869C397.392 134.238 401.232 134.238 403.592 131.869L406.459 129.009C408.832 126.639 408.832 122.797 406.459 120.429Z" fill="#4B4245" />
        <path id="path136" d="M374.976 90.8929C371.15 87.0649 365.686 85.8782 360.839 87.3262C358.655 87.9795 356.596 89.1675 354.871 90.8929L346.726 99.0382L351.283 109.538L352.235 111.729L348.79 115.174L348.263 115.7L347.452 115.473L335.356 112.098L334.967 113.49L334.63 114.696L336.274 115.154L347.564 118.304L350.716 129.596L351.175 131.237L352.378 130.902L353.771 130.514L350.396 118.414L350.171 117.605L350.695 117.081L354.14 113.636L356.332 114.586L366.831 119.144L374.976 110.998C376.702 109.273 377.89 107.214 378.542 105.03C379.991 100.185 378.804 94.7195 374.976 90.8929" fill="#4B4245" />
        <path id="path138" d="M120.487 272.021C119.212 272.594 117.991 273.321 116.863 274.228C116.398 274.604 115.944 275.004 115.512 275.437L99.1644 291.785C92.8137 298.134 92.655 308.31 98.6523 314.874C98.8243 315.062 98.9817 315.258 99.1644 315.44C103.522 319.796 109.679 321.23 115.239 319.776C118.015 319.05 120.643 317.616 122.819 315.44L139.167 299.093C145.699 292.561 145.699 281.969 139.167 275.437C134.115 270.384 126.639 269.258 120.487 272.021" fill="#4B4245" />
        <path id="path140" d="M190.432 326.702C183.9 320.17 173.308 320.17 166.776 326.702L150.43 343.049C148.254 345.226 146.819 347.854 146.092 350.631C144.639 356.19 146.074 362.349 150.43 366.705C150.611 366.886 150.807 367.045 150.995 367.215C157.559 373.213 167.735 373.056 174.084 366.705L190.432 350.358C190.866 349.925 191.266 349.472 191.64 349.005C192.55 347.878 193.275 346.657 193.848 345.382C196.611 339.23 195.484 331.756 190.432 326.702" fill="#4B4245" />
        <path id="path142" d="M244.078 160.422C245.51 160.422 246.858 159.865 247.871 158.85L245.966 156.945C244.959 157.95 243.196 157.953 242.192 156.945C241.685 156.44 241.41 155.77 241.41 155.058C241.41 154.345 241.685 153.674 242.192 153.17L240.284 151.264C239.271 152.277 238.712 153.624 238.712 155.058C238.712 156.492 239.271 157.838 240.284 158.85C241.296 159.864 242.644 160.422 244.078 160.422" fill="#4B4245" />
        <path id="path144" d="M282.585 197.341C282.081 196.837 281.806 196.166 281.806 195.454C281.806 194.741 282.081 194.07 282.585 193.566L280.68 191.66C279.667 192.674 279.108 194.021 279.108 195.454C279.108 196.886 279.667 198.234 280.68 199.248C281.693 200.262 283.042 200.818 284.474 200.818C285.908 200.818 287.255 200.261 288.267 199.248L286.36 197.341C285.355 198.349 283.592 198.348 282.585 197.341" fill="#4B4245" />
        <path id="path146" d="M265.983 173.547C263.451 171.014 259.832 170.227 256.624 171.186C255.178 171.619 253.815 172.405 252.672 173.547L247.279 178.941L250.731 186.891L248.163 189.461L239.876 187.149L239.496 188.51L239.15 189.745L247.464 192.065L248.904 197.225L249.786 200.381L251.023 200.037L252.382 199.657L252.292 199.334L250.07 191.366L252.638 188.799L260.59 192.251L265.984 186.858C267.127 185.715 267.912 184.353 268.344 182.907C269.304 179.699 268.518 176.081 265.984 173.547H265.983" fill="#4B4245" />
        <path id="path148" d="M187.684 269.777C189.775 268.925 191.735 267.652 193.432 265.956C199.494 259.893 200.15 250.487 195.43 243.685C194.843 242.838 194.187 242.026 193.432 241.272C186.616 234.457 175.566 234.457 168.75 241.272C161.932 248.088 161.932 259.14 168.75 265.956C173.868 271.074 181.375 272.347 187.684 269.777Z" fill="#4B4245" />
        <path id="path150" d="M222.185 270.439C215.381 265.718 205.976 266.375 199.915 272.437C198.217 274.134 196.944 276.094 196.092 278.185C193.523 284.493 194.795 292.001 199.915 297.121C206.731 303.935 217.781 303.935 224.596 297.121C231.413 290.303 231.413 279.253 224.596 272.437C223.844 271.683 223.029 271.027 222.185 270.439Z" fill="#4B4245" />
        <g id="water">
            <path id="path152" d="M224.979 80.1969C197.754 104.177 171.544 129.228 146.36 155.342C142.746 159.09 148.459 164.818 152.082 161.062C177.264 134.948 203.474 109.897 230.7 85.9183C234.615 82.4703 228.875 76.7662 224.979 80.1969Z" fill="#5F8C95" />
            <path id="path154" d="M143.639 125.656C121.323 147.765 100.051 170.836 79.8189 194.865C76.4856 198.824 82.1803 204.574 85.539 200.586C105.771 176.556 127.044 153.486 149.359 131.377C153.062 127.706 147.342 121.986 143.639 125.656" fill="#5F8C95" />
            <path id="path156" d="M243.891 373.397C228.502 395.762 206.638 412.502 186.198 429.986C167.14 446.286 143.487 475.261 116.043 472.921C110.858 472.478 110.887 480.57 116.043 481.01C143.487 483.35 164.948 458.775 183.974 442.501C207.522 422.359 233.142 403.253 250.875 377.481C253.834 373.181 246.826 369.13 243.891 373.397" fill="#5F8C95" />
            <path id="path158" d="M438.806 49.1862C452.672 61.9902 463.019 77.4795 469.339 95.2755C471.059 100.148 478.886 98.0489 477.139 93.1249C470.352 74.0129 459.432 57.2355 444.525 43.4662C440.712 39.9382 434.979 45.6449 438.806 49.1862Z" fill="#5F8C95" />
            <path id="path160" d="M267.9 377.764C263.39 384.918 258.238 391.538 252.416 397.673C248.832 401.449 254.543 407.179 258.136 403.393C264.419 396.771 270.017 389.569 274.885 381.846C277.671 377.43 270.674 373.366 267.9 377.764" fill="#5F8C95" />
        </g>
    </g>
</svg>
