<svg width="574" height="628" viewBox="0 0 574 628" fill="none" xmlns="http://www.w3.org/2000/svg">
    <g id="otter-rock">
        <g id="rock">
            <path id="path332" d="M329.139 335.229L205.619 341.309L98.3657 404.789L245.512 457.615L440.672 458.642L504.739 394.149L329.139 335.229" fill="#727781" />
            <path id="path334" d="M98.3657 404.789L26.7922 544.429L177.672 601.055L245.512 457.615L98.3657 404.789" fill="#7C818C" />
            <path id="path336" d="M177.672 601.055H448.939L440.672 458.642L245.512 457.615L177.672 601.055" fill="#90949D" />
            <path id="path338" d="M504.739 394.149L440.672 458.642L448.939 601.055L543.752 541.722L504.739 394.149Z" fill="#7C818C" />
        </g>
        <path id="path364" d="M188.739 50.6489H188.752C192.099 50.6489 194.819 47.9316 194.819 44.5809V40.5369C194.819 37.1849 192.099 34.4689 188.752 34.4689H188.739C186.952 34.4689 185.352 35.2649 184.246 36.5049C183.286 37.5783 182.672 38.9822 182.672 40.5369V44.5809C182.672 45.6476 182.979 46.6356 183.459 47.5062C184.499 49.3716 186.459 50.6489 188.739 50.6489" fill="#4B4245" />
        <path id="path366" d="M275.032 50.6489C278.392 50.6489 281.099 47.9316 281.099 44.5809V40.5369C281.099 37.1849 278.392 34.4689 275.032 34.4689C271.686 34.4689 268.966 37.1849 268.966 40.5369V44.5809C268.966 47.9316 271.686 50.6489 275.032 50.6489Z" fill="#4B4245" />
        <path id="path368" d="M231.886 40.9316C226.472 40.9316 221.779 43.9583 219.379 48.4076C218.286 50.4143 217.672 52.7102 217.672 55.1489V66.6703L230.539 71.7476V75.3969V76.6196V77.3649L229.806 77.7809L218.872 83.9436L219.579 85.2036L220.192 86.2929L221.672 85.4542L231.886 79.6996L242.099 85.4542L243.592 86.2929L244.206 85.2036L244.912 83.9436L233.979 77.7796L233.246 77.3649V76.6223V75.9836V71.7476L246.112 66.6703V55.1489C246.112 52.7102 245.486 50.4143 244.406 48.4076C242.006 43.9583 237.299 40.9316 231.886 40.9316" fill="#4B4245" />
        <path id="path370" d="M205.526 181.842C202.539 180.536 199.259 179.816 195.792 179.816C182.326 179.816 171.406 190.736 171.406 204.202C171.406 217.682 182.326 228.602 195.792 228.602C209.272 228.602 220.192 217.682 220.192 204.202C220.192 194.189 214.152 185.602 205.526 181.842Z" fill="#4B4245" />
        <path id="path372" d="M278.126 179.816C274.672 179.816 271.379 180.536 268.392 181.842C259.766 185.602 253.726 194.189 253.726 204.202C253.726 217.682 264.659 228.602 278.126 228.602C291.606 228.602 302.526 217.682 302.526 204.202C302.526 190.736 291.606 179.816 278.126 179.816Z" fill="#4B4245" />
        <path id="path374" d="M317.472 123.245C304.739 135.34 287.552 142.776 268.606 142.776H223.606C213.726 142.776 204.339 140.762 195.792 137.114V179.815C199.259 179.815 202.539 180.536 205.526 181.842C213.072 172.909 224.352 167.242 236.966 167.242C249.566 167.242 260.846 172.909 268.392 181.842C271.379 180.536 274.672 179.815 278.126 179.815C291.606 179.815 302.526 190.736 302.526 204.202C302.526 217.682 291.606 228.602 278.126 228.602V328.202C299.446 302.829 331.139 287.575 365.512 287.575V288.935V290.282C330.819 290.282 298.926 306.202 278.126 332.495C271.886 340.389 266.632 349.202 262.606 358.816L262.272 359.642H217.312V358.295C209.486 358.295 202.139 360.375 195.792 364.002C182.686 371.495 173.859 385.589 173.859 401.762H195.792H252.686H365.512V345.349V288.935V241.549C365.512 195.535 347.192 153.816 317.472 123.245" fill="#746259" />
        <path id="path376" d="M152.659 40.9315C152.659 44.5608 153.872 47.8968 155.899 50.5901C158.899 40.9861 163.912 32.2715 170.419 24.9075C169.872 24.8529 169.326 24.8235 168.766 24.8235C159.872 24.8235 152.659 32.0368 152.659 40.9315Z" fill="#685246" />
        <path id="path378" d="M339.552 40.9315C339.552 32.0368 332.339 24.8235 323.446 24.8235C322.886 24.8235 322.339 24.8529 321.806 24.9075C328.299 32.2715 333.312 40.9861 336.326 50.5901C338.339 47.8968 339.552 44.5608 339.552 40.9315" fill="#685246" />
        <path id="path380" d="M497.552 372.802C465.126 354.922 404.912 345.349 365.512 345.349V358.295V401.762H550.046L497.552 372.802Z" fill="#685246" />
        <path id="path340" d="M217.312 358.295V356.949H260.472C264.992 346.362 270.979 336.709 278.126 328.202V228.602C264.659 228.602 253.726 217.682 253.726 204.202C253.726 194.189 259.766 185.602 268.392 181.842C260.846 172.909 249.566 167.242 236.966 167.242C224.352 167.242 213.072 172.909 205.526 181.842C214.152 185.602 220.192 194.189 220.192 204.202C220.192 217.682 209.272 228.602 195.792 228.602V364.002C202.139 360.375 209.486 358.295 217.312 358.295" fill="#827069" />
        <path id="path342" d="M195.792 72.7969C195.806 72.7929 195.819 72.7889 195.832 72.7849C195.819 72.7515 195.806 72.7195 195.792 72.6849C195.206 70.8395 194.886 68.8742 194.886 66.8316C194.886 65.0382 195.139 63.3076 195.606 61.6596C185.992 61.1222 170.766 60.9942 153.166 63.4449C152.846 66.1969 152.659 68.9916 152.659 71.8303C152.659 79.5876 153.926 87.0449 156.219 94.0316C166.646 86.1849 176.099 80.9956 183.366 77.6663C188.152 75.4823 192.326 73.9209 195.792 72.7969" fill="#B28B74" />
        <path id="path344" d="M188.739 34.4689H188.752C192.099 34.4689 194.819 37.1849 194.819 40.5369V44.5809C194.819 47.9316 192.099 50.6489 188.752 50.6489H188.739C186.459 50.6489 184.499 49.3716 183.459 47.5062C182.979 46.6356 182.672 45.6476 182.672 44.5809V40.5369C182.672 38.9822 183.286 37.5783 184.246 36.5049C185.352 35.2649 186.952 34.4689 188.739 34.4689V34.4689ZM268.966 40.5369C268.966 37.1849 271.686 34.4689 275.032 34.4689C278.392 34.4689 281.099 37.1849 281.099 40.5369V44.5809C281.099 47.9316 278.392 50.6489 275.032 50.6489C271.686 50.6489 268.966 47.9316 268.966 44.5809V40.5369ZM196.032 60.3356C198.699 52.9423 205.752 47.6476 214.059 47.6476C215.912 47.6476 217.686 47.9223 219.379 48.4076C221.779 43.9583 226.472 40.9316 231.885 40.9316C237.299 40.9316 242.006 43.9583 244.406 48.4076C246.099 47.9223 247.872 47.6476 249.712 47.6476C258.032 47.6476 265.085 52.9422 267.752 60.3342C282.325 59.4942 310.046 59.5436 339.472 68.2396C339.166 62.1209 338.072 56.2062 336.325 50.5902C333.312 40.9862 328.299 32.2716 321.806 24.9076C308.806 10.1823 289.792 0.88488 268.606 0.88488H223.606C202.419 0.88488 183.419 10.1823 170.419 24.9076C163.912 32.2716 158.899 40.9862 155.899 50.5902C154.739 54.2915 153.886 58.1263 153.339 62.0609C171.099 59.6209 186.432 59.7823 196.032 60.3356" fill="#B28B74" />
        <path id="path346" d="M267.472 74.0929C265.752 78.2942 262.579 81.7436 258.592 83.8329C255.939 85.2209 252.926 86.0169 249.712 86.0169C247.792 86.0169 245.952 85.7276 244.206 85.2036L243.592 86.2929L242.099 85.4542C241.152 87.9542 238.392 93.1782 231.886 93.1782C225.392 93.1782 222.632 87.9542 221.672 85.4542L220.192 86.2929L219.579 85.2036C217.832 85.7276 215.979 86.0169 214.059 86.0169C206.046 86.0169 199.179 81.0862 196.312 74.0929C196.139 74.1476 195.966 74.2062 195.792 74.2622C186.646 77.2942 172.539 83.3969 156.672 95.3756C163.286 114.17 177.579 129.345 195.792 137.114C204.339 140.762 213.726 142.776 223.606 142.776H268.606C287.552 142.776 304.739 135.34 317.472 123.245C320.859 120.02 323.939 116.466 326.632 112.63C302.939 88.4329 280.166 78.2236 267.472 74.0929" fill="#B28B74" />
        <path id="path348" d="M339.499 69.6622C310.326 60.9596 282.792 60.8436 268.179 61.6609C268.632 63.3076 268.899 65.0382 268.899 66.8316C268.899 68.9289 268.552 70.9423 267.926 72.8303C280.779 77.0209 303.659 87.3036 327.432 111.516C335.086 100.188 339.552 86.5316 339.552 71.8303C339.552 71.1036 339.526 70.3836 339.499 69.6622" fill="#B28B74" />
        <path id="path350" d="M217.672 55.1489C217.672 52.7102 218.286 50.4143 219.379 48.4076C217.686 47.9223 215.912 47.6476 214.059 47.6476C205.752 47.6476 198.699 52.9423 196.032 60.3356C202.632 60.7143 206.539 61.2756 206.672 61.2969L206.472 62.6289C206.339 62.6089 202.339 62.0369 195.606 61.6596C195.139 63.3076 194.885 65.0382 194.885 66.8316C194.885 68.8742 195.205 70.8395 195.792 72.6849C195.805 72.7195 195.819 72.7515 195.832 72.7849C196.899 72.4395 197.899 72.1343 198.819 71.8689C203.512 70.5183 206.272 70.1382 206.485 70.1116L206.659 71.4489C206.605 71.4569 205.565 71.6075 203.725 72.0209C201.965 72.4195 199.446 73.0729 196.312 74.0929C199.179 81.0862 206.045 86.0169 214.059 86.0169C215.979 86.0169 217.832 85.7276 219.579 85.2036L218.872 83.9435L229.806 77.7809L230.539 77.3649V76.6196V75.3969V71.7476L217.672 66.6702V55.1489" fill="#C9AB98" />
        <path id="path352" d="M267.926 72.8303C268.552 70.9423 268.899 68.9289 268.899 66.8316C268.899 65.0382 268.632 63.3076 268.179 61.6609C261.446 62.0369 257.446 62.6089 257.312 62.6289L257.112 61.2969C257.246 61.2756 261.152 60.7142 267.752 60.3342C265.086 52.9422 258.032 47.6476 249.712 47.6476C247.872 47.6476 246.099 47.9223 244.406 48.4076C245.486 50.4143 246.112 52.7102 246.112 55.1489V66.6702L233.246 71.7476V75.9836V76.6222V77.3649L233.979 77.7795L244.912 83.9435L244.206 85.2036C245.952 85.7276 247.792 86.0169 249.712 86.0169C252.926 86.0169 255.939 85.2209 258.592 83.8329C262.579 81.7436 265.752 78.2942 267.472 74.0929C261.086 72.0156 257.232 71.4649 257.126 71.4489L257.299 70.1116C257.419 70.1262 261.379 70.6929 267.926 72.8303" fill="#C9AB98" />
        <path id="path354" d="M221.672 85.4541C222.632 87.9541 225.392 93.1782 231.886 93.1782C238.392 93.1782 241.152 87.9541 242.099 85.4541L231.886 79.6995L221.672 85.4541Z" fill="#AC4A55" />
        <path id="path356" d="M339.472 68.2396C310.046 59.5436 282.326 59.4942 267.752 60.3342C261.152 60.7142 257.246 61.2756 257.112 61.2969L257.312 62.6289C257.446 62.6089 261.446 62.0369 268.179 61.6609C282.792 60.8436 310.326 60.9595 339.499 69.6622C343.659 70.9009 347.832 72.3036 352.019 73.9116L352.499 72.6529C348.139 70.9782 343.792 69.5169 339.472 68.2396Z" fill="#E4D4C9" />
        <path id="path358" d="M267.925 72.8302C261.379 70.6929 257.419 70.1262 257.299 70.1115L257.125 71.4488C257.232 71.4648 261.086 72.0155 267.472 74.0929C280.166 78.2235 302.939 88.4329 326.632 112.63C328.046 114.069 329.445 115.54 330.859 117.077L331.859 116.166C330.379 114.554 328.899 113.017 327.432 111.516C303.659 87.3035 280.779 77.0209 267.925 72.8302" fill="#E4D4C9" />
        <path id="path360" d="M153.339 62.0609C140.206 63.8662 125.752 67.0916 111.272 72.6529L111.766 73.9116C125.992 68.4396 140.219 65.2476 153.166 63.4449C170.766 60.9942 185.992 61.1222 195.606 61.6595C202.339 62.0369 206.339 62.6089 206.472 62.6289L206.672 61.2969C206.539 61.2756 202.632 60.7143 196.032 60.3356C186.432 59.7823 171.099 59.6209 153.339 62.0609" fill="#E4D4C9" />
        <path id="path362" d="M198.819 71.8689C197.899 72.1342 196.899 72.4395 195.832 72.7848C195.819 72.7888 195.806 72.7929 195.792 72.7969C192.326 73.9209 188.152 75.4822 183.366 77.6662C176.099 80.9956 166.646 86.1849 156.219 94.0315C148.499 99.8382 140.246 107.096 131.926 116.166L132.912 117.077C140.992 108.273 149.032 101.145 156.672 95.3755C172.539 83.3969 186.646 77.2942 195.792 74.2622C195.966 74.2062 196.139 74.1475 196.312 74.0929C199.446 73.0729 201.966 72.4195 203.726 72.0209C205.566 71.6075 206.606 71.4568 206.659 71.4488L206.486 70.1115C206.272 70.1382 203.512 70.5182 198.819 71.8689Z" fill="#E4D4C9" />
        <g id="water">
            <path id="path382" d="M278.126 328.202C270.979 336.709 264.992 346.362 260.472 356.949H217.312V358.295V359.642H262.272L262.606 358.815C266.632 349.202 271.886 340.389 278.126 332.495C298.926 306.202 330.819 290.282 365.512 290.282V288.935V287.575C331.139 287.575 299.446 302.829 278.126 328.202Z" fill="#685246" />
            <path id="path384" d="M2.23234 560.949C26.179 576.376 51.6323 588.802 78.4723 598.322C83.3923 600.056 85.4989 592.242 80.6189 590.522C54.4323 581.229 29.6723 569.002 6.31228 553.962C1.92562 551.136 -2.12766 558.136 2.23234 560.949Z" fill="#5F8C95" />
            <path id="path386" d="M50.219 611.656C66.4057 617.002 82.6056 622.349 98.7923 627.696C103.752 629.336 105.872 621.522 100.952 619.896C84.7523 614.549 68.5524 609.202 52.3657 603.856C47.4057 602.216 45.2857 610.029 50.219 611.656Z" fill="#5F8C95" />
            <path id="path388" d="M292.725 625.002C340.312 628.136 387.965 628.162 435.552 625.056C440.725 624.722 440.765 616.629 435.552 616.976C387.965 620.069 340.312 620.042 292.725 616.909C287.525 616.576 287.552 624.669 292.725 625.002" fill="#5F8C95" />
            <path id="path390" d="M552.699 522.829C559.966 528.575 567.045 535.082 564.925 544.896C563.245 552.656 554.352 558.469 548.486 563.256C535.832 573.589 522.832 583.016 507.325 588.576C502.459 590.309 504.566 598.136 509.486 596.376C530.192 588.949 551.406 574.522 566.339 558.269C580.326 543.029 572.752 528.442 558.419 517.109C554.366 513.909 548.606 519.602 552.699 522.829" fill="#5F8C95" />
            <path id="path392" d="M521.432 622.015C530.286 617.282 539.152 612.549 548.006 607.815C552.606 605.362 548.525 598.375 543.925 600.829C535.072 605.562 526.205 610.295 517.352 615.029C512.752 617.495 516.832 624.469 521.432 622.015Z" fill="#5F8C95" />
        </g>
    </g>
</svg>
