<svg width="620" height="300" viewBox="0 0 620 300" fill="none" xmlns="http://www.w3.org/2000/svg">
    <g id="otter-beach">
        <path id="path554" d="M441.919 240.989C435.136 156.922 364.766 90.8049 278.95 90.8049H208.359C199.907 120.536 172.571 142.322 140.128 142.322H95.119C55.9377 142.322 24.1737 110.558 24.1737 71.3755V172.562C24.1737 175.949 24.4043 179.282 24.8043 182.549H24.799V260.002H17.6743C7.99407 260.002 0.146729 267.842 0.146729 277.522V281.576C0.146729 291.256 7.99407 299.096 17.6743 299.096H51.3137C65.959 299.096 77.831 287.229 77.831 272.589V249.362C86.5923 252.562 96.0577 254.322 105.931 254.322H108.21V260.002H101.086C91.4057 260.002 83.5577 267.842 83.5577 277.522V281.576C83.5577 291.256 91.4057 299.096 101.086 299.096H134.726C149.37 299.096 161.242 287.229 161.242 272.589V254.322H291.66C266.928 254.322 246.88 274.362 246.88 299.096H430.328H442.463V254.322C442.463 249.829 442.274 245.389 441.919 240.989Z" fill="#746259" />
        <path id="path556" d="M442.463 299.096H619.003C619.003 299.096 562.147 244.349 441.919 240.989C442.274 245.389 442.463 249.829 442.463 254.322V299.096Z" fill="#685246" />
        <path id="path558" d="M24.1736 31.1448C24.1736 36.0781 26.3989 40.4888 29.8922 43.4434C34.1962 33.4088 40.7523 24.5781 48.9176 17.5621C46.4189 15.9701 43.4629 15.0368 40.2816 15.0368C31.3856 15.0368 24.1736 22.2488 24.1736 31.1448" fill="#685246" />
        <path id="path560" d="M194.967 15.0368C191.786 15.0368 188.828 15.9701 186.331 17.5621C194.496 24.5781 201.052 33.4088 205.356 43.4434C208.85 40.4888 211.074 36.0781 211.074 31.1448C211.074 22.2488 203.863 15.0368 194.967 15.0368" fill="#685246" />
        <path id="path562" d="M158.052 95.6702C156.135 95.6702 154.284 95.3808 152.536 94.8568L151.923 95.9462L150.438 95.1089C149.487 97.6089 146.724 102.832 140.226 102.832C133.728 102.832 130.967 97.6089 130.015 95.1089L128.53 95.9462L127.916 94.8555C126.168 95.3809 124.318 95.6702 122.399 95.6702C116.458 95.6702 111.15 92.9675 107.631 88.7275C104.874 85.4049 103.215 81.1395 103.215 76.4862C103.215 65.8902 111.804 57.3009 122.399 57.3009C124.243 57.3009 126.02 57.5755 127.708 58.0609C130.11 53.6102 134.814 50.5862 140.226 50.5862C145.639 50.5862 150.342 53.6102 152.744 58.0609C154.432 57.5755 156.208 57.3009 158.052 57.3009C168.648 57.3009 177.238 65.8902 177.238 76.4862C177.238 82.1862 174.736 87.2916 170.79 90.8049C167.399 93.8209 162.947 95.6702 158.052 95.6702V95.6702ZM205.356 43.4435C201.052 33.4088 194.496 24.5782 186.331 17.5622C173.916 6.89285 157.782 0.430222 140.128 0.430222H95.1189C77.4669 0.430222 61.3323 6.89285 48.9176 17.5622C40.7523 24.5782 34.1962 33.4088 29.8922 43.4435C26.2162 52.0168 24.1736 61.4569 24.1736 71.3755C24.1736 110.558 55.9376 142.322 95.1189 142.322H140.128C172.571 142.322 199.907 120.536 208.359 90.8049C210.114 84.6276 211.074 78.1155 211.074 71.3755C211.074 61.4569 209.031 52.0168 205.356 43.4435Z" fill="#B28B74" />
        <path id="path564" d="M126.01 64.8021C126.01 62.3621 126.626 60.0675 127.708 58.0608C126.02 57.5755 124.243 57.3008 122.399 57.3008C111.804 57.3008 103.215 65.8901 103.215 76.4861C103.215 81.1395 104.874 85.4048 107.631 88.7275C111.15 92.9675 116.458 95.6701 122.399 95.6701C124.318 95.6701 126.168 95.3808 127.916 94.8555L127.207 93.5981L132.162 90.8048L138.143 87.4328L138.878 87.0181V86.2728V81.4008L126.01 76.3221V64.8021" fill="#C9AB98" />
        <path id="path566" d="M158.052 57.3008C156.208 57.3008 154.432 57.5755 152.744 58.0608C153.827 60.0675 154.443 62.3621 154.443 64.8021V76.3221L141.575 81.4008V86.2741V87.0181L142.308 87.4314L148.292 90.8048L153.246 93.5981L152.536 94.8568C154.284 95.3808 156.135 95.6701 158.052 95.6701C162.947 95.6701 167.399 93.8208 170.79 90.8048C174.736 87.2915 177.238 82.1861 177.238 76.4861C177.238 65.8901 168.648 57.3008 158.052 57.3008" fill="#C9AB98" />
        <path id="path568" d="M142.803 90.8049L140.226 89.3528L137.65 90.8049L130.015 95.1088C130.967 97.6088 133.728 102.831 140.226 102.831C146.724 102.831 149.487 97.6088 150.438 95.1088L142.803 90.8049Z" fill="#AC4A55" />
        <path id="path570" d="M141.575 81.4009L154.443 76.3223V64.8023C154.443 62.3623 153.827 60.0676 152.744 58.0609C150.342 53.6103 145.639 50.5863 140.226 50.5863C134.814 50.5863 130.11 53.6103 127.708 58.0609C126.626 60.0676 126.01 62.3623 126.01 64.8023V76.3223L138.878 81.4009V86.2729V87.0182L138.143 87.4329L132.162 90.805L127.207 93.5982L127.916 94.8556L128.53 95.9462L130.015 95.1089L137.65 90.805L140.226 89.3529L142.803 90.805L150.438 95.1089L151.923 95.9462L152.536 94.8569L153.246 93.5982L148.292 90.805L142.308 87.4316L141.575 87.0182V86.2743V81.4009" fill="#4B4245" />
        <path id="path572" d="M97.0816 60.3022C93.7309 60.3022 91.0149 57.5862 91.0149 54.2355V50.1901C91.0149 46.8395 93.7309 44.1235 97.0816 44.1235C100.432 44.1235 103.148 46.8395 103.148 50.1901V54.2355C103.148 57.5862 100.432 60.3022 97.0816 60.3022Z" fill="#4B4245" />
        <path id="path574" d="M183.371 60.3022C180.02 60.3022 177.304 57.5862 177.304 54.2355V50.1901C177.304 46.8395 180.02 44.1235 183.371 44.1235C186.722 44.1235 189.438 46.8395 189.438 50.1901V54.2355C189.438 57.5862 186.722 60.3022 183.371 60.3022Z" fill="#4B4245" />
        <path id="path576" d="M260.355 83.5649C213.202 65.4395 166.115 72.2102 165.643 72.2822L165.443 70.9489C165.915 70.8755 213.358 64.0596 260.839 82.3062L260.355 83.5649" fill="#E4D4C9" />
        <path id="path578" d="M239.2 126.736C202.074 86.2875 165.818 81.1502 165.456 81.1022L165.631 79.7648C165.996 79.8115 202.71 84.9875 240.196 125.815L239.2 126.736" fill="#E4D4C9" />
        <path id="path580" d="M20.0962 83.5649L19.6118 82.3062C67.091 64.0582 114.532 70.8742 115.007 70.9489L114.807 72.2822C114.336 72.2115 67.235 65.4475 20.0962 83.5649Z" fill="#E4D4C9" />
        <path id="path582" d="M41.2497 126.736L40.2537 125.815C59.8337 104.493 79.0403 93.1128 91.707 87.3195C105.462 81.0302 114.444 79.8128 114.82 79.7648L114.994 81.1022C114.634 81.1502 78.3777 86.2875 41.2497 126.736" fill="#E4D4C9" />
        <path id="path584" d="M291.251 254.842L288.764 253.802C306.583 211.162 347.95 183.602 394.151 183.602V186.296C349.039 186.296 308.65 213.202 291.251 254.842" fill="#685246" />
        <path id="path586" d="M105.93 255.669C73.5083 255.669 43.8336 236.616 30.3296 207.122L32.7829 206.002C45.8483 234.536 74.5589 252.976 105.93 252.976V255.669Z" fill="#685246" />
    </g>
</svg>
