<svg width="659" height="668" viewBox="0 0 659 668" fill="none" xmlns="http://www.w3.org/2000/svg">
    <g id="otter-double">
        <path id="path162" d="M228.611 510.829L168.355 450.562C168.08 450.296 167.823 450.002 167.556 449.722C159.03 452.629 149.22 450.722 142.42 443.922C132.894 434.389 132.894 418.949 142.42 409.416C145.571 406.269 149.374 404.176 153.391 403.109C155.236 392.576 160.214 382.469 168.355 374.336C189.406 353.282 223.535 353.282 244.587 374.336L304.844 434.589C325.896 455.642 325.896 489.776 304.844 510.829C283.794 531.877 249.663 531.877 228.611 510.829V510.829ZM377.131 544.321C378.692 541.238 380.062 538.086 381.238 534.877L338.772 492.416C328.792 482.429 328.792 466.242 338.772 456.269C347.063 447.976 359.623 446.602 369.362 452.082C366.802 448.629 363.962 445.309 360.83 442.176L237.002 318.349C234.924 316.269 232.767 314.336 230.546 312.509V208.136C230.546 193.229 218.458 181.136 203.544 181.136C188.634 181.136 176.544 193.229 176.544 208.136V253.402C183.858 265.616 187.174 279.562 186.486 293.349C185.918 304.762 182.599 316.056 176.544 326.176C173.606 331.082 170.03 335.722 165.799 339.949L133.974 371.776C121.026 384.722 104.316 391.616 87.363 392.469C89.8457 410.936 98.171 428.789 112.368 442.989L236.196 566.81C239.33 569.942 242.643 572.782 246.098 575.344C240.615 565.604 241.995 553.044 250.286 544.754C260.267 534.773 276.45 534.773 286.431 544.754L328.896 587.218C332.527 585.888 336.092 584.33 339.556 582.506C369.92 609.502 423.803 641.809 485.47 608.244C485.47 608.244 421.115 591.682 377.131 544.321" fill="#746259" />
        <path id="path164" d="M13.0856 316.229C10.1936 316.869 7.44159 318.296 5.19359 320.549C-1.09708 326.842 -1.09708 337.042 5.19359 343.336C8.68292 346.816 13.3722 348.362 17.9336 347.989C13.8802 337.842 12.2722 326.962 13.0856 316.229" fill="#685246" />
        <path id="path166" d="M142.004 223.909C142.386 219.349 140.84 214.669 137.351 211.176C131.06 204.882 120.862 204.882 114.571 211.176C112.322 213.429 110.892 216.176 110.251 219.069C120.986 218.256 131.866 219.856 142.004 223.909Z" fill="#685246" />
        <path id="path168" d="M145.931 326.696C144.575 328.056 143.063 329.162 141.456 330.029L141.794 331.229L140.15 331.682C141.246 334.122 142.984 339.776 138.39 344.376C133.795 348.962 128.148 347.229 125.708 346.136L125.251 347.776L124.046 347.442C123.18 349.042 122.078 350.549 120.72 351.909C113.228 359.402 101.083 359.402 93.5896 351.909C93.0203 351.336 92.5083 350.736 92.0243 350.122C86.155 342.589 86.6683 331.709 93.5896 324.776C94.8936 323.482 96.3443 322.416 97.8803 321.562C96.4323 316.722 97.6203 311.256 101.447 307.429C105.274 303.602 110.739 302.416 115.584 303.856C116.434 302.322 117.496 300.869 118.8 299.576C125.722 292.656 136.61 292.136 144.138 298.002C144.756 298.482 145.362 299.002 145.931 299.576C153.423 307.056 153.423 319.216 145.931 326.696V326.696ZM176.544 253.402C173.606 248.482 170.03 243.856 165.799 239.616C158.784 232.602 150.666 227.376 142.004 223.909C131.866 219.856 120.986 218.256 110.251 219.069C93.927 220.296 77.9496 227.136 65.467 239.616L33.6403 271.442C21.1576 283.936 14.319 299.909 13.0856 316.229C12.2723 326.962 13.8803 337.842 17.9336 347.989C21.3963 356.642 26.627 364.762 33.6403 371.776C48.399 386.536 68.0403 393.429 87.363 392.469C104.316 391.616 121.026 384.722 133.974 371.776L165.799 339.949C170.03 335.722 173.606 331.082 176.544 326.176C182.599 316.056 185.918 304.762 186.486 293.349C187.174 279.562 183.858 265.616 176.544 253.402" fill="#C9AB98" />
        <path id="path170" d="M122.283 330.176L109.592 335.682L103.136 329.216L101.447 327.536C99.7216 325.802 98.5336 323.749 97.8803 321.562C96.3443 322.416 94.8936 323.482 93.5896 324.776C86.6683 331.709 86.1549 342.589 92.0243 350.122C92.5083 350.736 93.0203 351.336 93.5896 351.909C101.083 359.402 113.228 359.402 120.72 351.909C122.078 350.549 123.18 349.042 124.046 347.442L122.654 347.056L126.028 334.949L126.254 334.136L125.728 333.616L122.283 330.176" fill="#DECCC0" />
        <path id="path172" d="M145.931 299.576C145.362 299.002 144.756 298.482 144.138 298.002C136.61 292.136 125.722 292.656 118.8 299.576C117.496 300.869 116.434 302.322 115.584 303.856C117.768 304.522 119.827 305.696 121.552 307.429L123.242 309.122L129.698 315.576L124.19 328.269L127.635 331.709L128.16 332.229L128.974 332.002L141.066 328.629L141.456 330.029C143.063 329.162 144.575 328.056 145.931 326.696C153.423 319.216 153.423 307.056 145.931 299.576" fill="#DECCC0" />
        <path id="path174" d="M125.708 346.136C128.148 347.229 133.795 348.962 138.39 344.376C142.984 339.776 141.246 334.122 140.15 331.682L128.862 334.842L125.708 346.136Z" fill="#AC4A55" />
        <path id="path176" d="M304.844 434.589L244.587 374.336C223.535 353.282 189.406 353.282 168.355 374.336C160.214 382.469 155.236 392.576 153.391 403.109C161.522 400.949 170.544 403.042 176.919 409.416C186.447 418.949 186.447 434.389 176.919 443.922C174.194 446.642 170.974 448.562 167.556 449.722C167.823 450.002 168.08 450.296 168.355 450.562L228.611 510.829C249.663 531.877 283.794 531.877 304.844 510.829C325.896 489.776 325.896 455.642 304.844 434.589" fill="#827069" />
        <path id="path178" d="M141.794 331.229L141.456 330.029L141.066 328.629L128.974 332.002L128.16 332.229L127.635 331.709L124.19 328.269L129.698 315.576L123.242 309.122L121.552 307.429C119.827 305.696 117.768 304.522 115.584 303.856C110.739 302.416 105.274 303.602 101.447 307.429C97.6202 311.256 96.4322 316.722 97.8802 321.562C98.5335 323.749 99.7215 325.802 101.447 327.536L103.136 329.216L109.592 335.682L122.283 330.176L125.728 333.616L126.254 334.136L126.028 334.949L122.654 347.056L124.046 347.442L125.251 347.776L125.708 346.136L128.862 334.842L140.15 331.682L141.794 331.229" fill="#4B4245" />
        <path id="path180" d="M328.896 587.218L286.431 544.754C276.45 534.773 260.267 534.773 250.285 544.754C241.995 553.044 240.615 565.604 246.098 575.344C247.215 577.329 248.595 579.209 250.285 580.898L300.808 631.422C310.791 641.404 326.974 641.404 336.954 631.422C346.935 621.44 346.935 605.258 336.954 595.277L328.896 587.218Z" fill="#4B4245" />
        <path id="path182" d="M425.44 506.789L374.918 456.269C373.227 454.575 371.35 453.202 369.362 452.082C359.623 446.602 347.063 447.975 338.772 456.269C328.792 466.242 328.792 482.429 338.772 492.415L381.238 534.877L389.296 542.934C399.276 552.915 415.46 552.915 425.44 542.934C435.422 532.954 435.422 516.77 425.44 506.789" fill="#4B4245" />
        <path id="path184" d="M153.391 403.109C149.374 404.175 145.571 406.269 142.42 409.415C132.894 418.949 132.894 434.389 142.42 443.922C149.22 450.722 159.03 452.629 167.556 449.722C170.974 448.562 174.194 446.642 176.919 443.922C186.447 434.389 186.447 418.949 176.919 409.415C170.544 403.042 161.522 400.949 153.391 403.109" fill="#4B4245" />
        <path id="path186" d="M219.188 218.469C219.188 227.109 212.184 234.109 203.544 234.109C194.906 234.109 187.903 227.109 187.903 218.469C187.903 209.829 194.906 202.816 203.544 202.816C212.184 202.816 219.188 209.829 219.188 218.469Z" fill="#4B4245" />
        <path id="path188" d="M207.588 194.389C207.588 196.629 205.778 198.429 203.544 198.429C201.311 198.429 199.502 196.629 199.502 194.389C199.502 192.162 201.311 190.349 203.544 190.349C205.778 190.349 207.588 192.162 207.588 194.389Z" fill="#4B4245" />
        <path id="path190" d="M193.134 200.442C193.134 202.669 191.323 204.482 189.09 204.482C186.858 204.482 185.046 202.669 185.046 200.442C185.046 198.202 186.858 196.402 189.09 196.402C191.323 196.402 193.134 198.202 193.134 200.442Z" fill="#4B4245" />
        <path id="path192" d="M222.043 200.442C222.043 202.669 220.233 204.482 218 204.482C215.767 204.482 213.958 202.669 213.958 200.442C213.958 198.202 215.767 196.402 218 196.402C220.233 196.402 222.043 198.202 222.043 200.442Z" fill="#4B4245" />
        <path id="path194" d="M77.1177 351.522C75.2163 351.522 73.3176 350.802 71.8723 349.362L73.779 347.456C75.6203 349.296 78.619 349.296 80.455 347.456C81.347 346.562 81.8376 345.376 81.8376 344.109C81.8376 342.856 81.347 341.669 80.455 340.776L82.3617 338.869C83.7617 340.269 84.5336 342.136 84.5336 344.109C84.5336 346.096 83.7617 347.962 82.3617 349.362C80.9163 350.802 79.0177 351.522 77.1177 351.522" fill="#4B4245" />
        <path id="path196" d="M138.134 290.509C136.152 290.509 134.291 289.736 132.89 288.336L134.796 286.429C136.582 288.216 139.69 288.216 141.47 286.429C142.362 285.549 142.852 284.362 142.852 283.096C142.852 281.842 142.362 280.656 141.47 279.762L143.375 277.856C144.776 279.256 145.548 281.122 145.548 283.096C145.548 285.082 144.776 286.936 143.375 288.336C141.976 289.736 140.115 290.509 138.134 290.509" fill="#4B4245" />
        <path id="path198" d="M134.762 304.789L133.677 303.989C133.961 303.602 162.683 265.242 209.164 244.576L209.711 245.802C163.552 266.336 135.043 304.416 134.762 304.789Z" fill="#F1E8E1" />
        <path id="path200" d="M140.866 311.162L140.044 310.096C140.336 309.869 169.922 287.589 225.335 289.936L225.278 291.282C170.415 288.936 141.152 310.949 140.866 311.162" fill="#F1E8E1" />
        <path id="path202" d="M39.8216 415.696L38.5896 415.149C59.2616 368.669 97.6296 339.949 98.0136 339.656L98.8136 340.749C98.4323 341.029 60.3443 369.549 39.8216 415.696Z" fill="#F1E8E1" />
        <path id="path204" d="M83.9549 431.322C82.7189 402.389 88.2536 380.762 93.1136 367.709C98.3922 353.535 103.883 346.322 104.115 346.029L105.184 346.842C104.96 347.135 82.9589 376.402 85.3029 431.255L83.9549 431.322Z" fill="#F1E8E1" />
        <path id="path206" d="M505.563 310.109C484.511 331.162 450.38 331.162 429.33 310.109L369.072 249.856C348.022 228.802 348.022 194.669 369.072 173.616C377.212 165.482 387.311 160.496 397.851 158.656C398.918 154.642 401.003 150.829 404.154 147.682C413.682 138.149 429.127 138.149 438.654 147.682C445.455 154.482 447.372 164.296 444.466 172.816C444.746 173.082 445.03 173.336 445.306 173.616L505.563 233.869C526.614 254.922 526.614 289.056 505.563 310.109V310.109ZM577.243 344.816C579.067 341.349 580.625 337.789 581.955 334.162L539.491 291.696C529.509 281.709 529.509 265.536 539.491 255.549C547.781 247.256 560.34 245.882 570.082 251.362C567.519 247.909 564.68 244.589 561.547 241.456L437.719 117.629C423.888 103.802 406.602 95.5356 388.639 92.8289C388.146 92.9089 387.658 93.0022 387.171 93.0822C386.224 109.882 379.347 126.402 366.518 139.229L334.691 171.056C330.46 175.296 325.824 178.869 320.915 181.802C310.936 187.776 299.811 191.082 288.56 191.709C288.47 192.216 288.378 192.722 288.29 193.229C286.442 203.922 285.416 216.376 286.022 230.536L284.672 230.602C284.034 215.642 285.212 202.656 287.164 191.776C276.826 192.162 266.426 190.296 256.748 186.176C250.867 194.776 245.242 204.402 240.54 214.976L239.307 214.429C244.004 203.869 249.618 194.229 255.488 185.629C252.982 184.509 250.526 183.242 248.136 181.802H202.874C187.963 181.802 175.874 193.896 175.874 208.802C175.874 223.722 187.963 235.802 202.874 235.802H307.243C309.068 238.029 311.012 240.189 313.087 242.269L436.916 366.096C440.047 369.229 443.36 372.069 446.815 374.629C441.334 364.882 442.714 352.322 451.004 344.029C460.984 334.056 477.168 334.056 487.148 344.029L529.613 386.496C532.823 385.322 535.975 383.949 539.057 382.389C586.419 426.376 602.98 490.736 602.98 490.736C636.545 429.069 604.239 375.189 577.243 344.816" fill="#685246" />
        <path id="path208" d="M274.498 146.736C276.338 148.576 279.338 148.562 281.172 146.736C283.011 144.896 283.011 141.895 281.172 140.055L283.08 138.149C285.968 141.042 285.968 145.749 283.08 148.642C281.634 150.082 279.735 150.802 277.834 150.802C275.935 150.802 274.036 150.082 272.59 148.642L274.498 146.736ZM344.094 77.1356C345.495 78.5356 346.266 80.4022 346.266 82.3755C346.266 84.3622 345.495 86.2289 344.094 87.6289C342.648 89.0689 340.75 89.7888 338.851 89.7888C336.952 89.7888 335.054 89.0689 333.608 87.6289L335.515 85.7221C337.354 87.5488 340.35 87.5488 342.188 85.7221C343.08 84.8288 343.57 83.6422 343.57 82.3755C343.57 81.1222 343.08 79.9355 342.188 79.0422L344.094 77.1356ZM290.53 145.789C287.186 138.669 288.431 129.936 294.307 124.069C295.611 122.762 297.063 121.696 298.599 120.842C297.15 116.002 298.338 110.536 302.164 106.709C305.991 102.882 311.458 101.695 316.303 103.149C317.152 101.602 318.214 100.149 319.519 98.8555C325.395 92.9755 334.128 91.7356 341.239 95.0689C348.844 86.5356 362.548 72.6822 381.084 60.0289C377.651 52.3756 372.806 45.1889 366.518 38.9089C359.503 31.8955 351.384 26.6556 342.723 23.2022C332.584 19.1489 321.703 17.5355 310.97 18.3488C294.646 19.5888 278.667 26.4155 266.186 38.9089L234.359 70.7356C221.875 83.2156 215.036 99.1889 213.803 115.509C212.99 126.256 214.598 137.122 218.651 147.269C222.114 155.922 227.346 164.042 234.359 171.055C238.588 175.295 243.226 178.869 248.136 181.802C250.526 183.242 252.982 184.509 255.488 185.629C256.375 184.336 257.267 183.056 258.163 181.802C270.055 165.202 282.591 152.855 290.53 145.789" fill="#B28B74" />
        <path id="path210" d="M381.631 61.2958C363.488 73.7092 350.038 87.2558 342.478 95.7091C343.3 96.1758 344.093 96.6958 344.855 97.2824C345.473 97.7758 346.08 98.2824 346.649 98.8557C348.133 100.336 349.31 102.002 350.207 103.789C357.492 100.082 368.937 95.3758 384.347 92.2824C385.293 92.0958 386.256 91.9091 387.232 91.7358C387.619 81.3891 385.75 70.9758 381.631 61.2958" fill="#B28B74" />
        <path id="path212" d="M293.831 166.989C295.671 162.056 297.531 157.976 299.192 154.736C297.432 153.842 295.779 152.669 294.307 151.189C293.738 150.629 293.226 150.016 292.743 149.402C292.15 148.642 291.626 147.842 291.163 147.029C283.402 153.962 271.351 165.869 259.822 181.802C258.792 183.229 257.766 184.682 256.748 186.176C266.426 190.296 276.826 192.162 287.164 191.776C287.347 190.762 287.53 189.749 287.724 188.776C288.21 186.336 288.734 184.016 289.28 181.802C290.71 176.056 292.304 171.096 293.831 166.989" fill="#B28B74" />
        <path id="path214" d="M346.65 125.989C345.294 127.336 343.78 128.442 342.174 129.309L342.511 130.509L340.867 130.976C341.963 133.416 343.702 139.056 339.108 143.656C334.514 148.242 328.867 146.509 326.427 145.416L325.97 147.056L324.763 146.722C323.899 148.322 322.796 149.842 321.439 151.189C315.764 156.869 307.423 158.242 300.454 155.322C297.41 161.296 293.655 170.162 290.711 181.802C289.926 184.909 289.2 188.216 288.56 191.709C299.811 191.082 310.936 187.776 320.915 181.802C325.824 178.869 330.46 175.296 334.691 171.056L366.518 139.229C379.347 126.402 386.224 109.882 387.171 93.0823C370.55 96.1223 358.34 101.122 350.766 104.989C353.692 111.962 352.326 120.309 346.65 125.989" fill="#B28B74" />
        <path id="path216" d="M350.766 104.989C344.786 108.042 341.676 110.376 341.584 110.442L340.763 109.376C340.858 109.309 344.059 106.909 350.207 103.789C349.31 102.002 348.134 100.336 346.65 98.8556C346.08 98.2822 345.474 97.7756 344.855 97.2822C344.094 96.6956 343.3 96.1756 342.478 95.7089C341.144 97.2023 340.002 98.5223 339.04 99.669C336.766 102.362 335.536 104.002 335.48 104.082L334.395 103.282C334.435 103.229 335.04 102.416 336.146 101.056C337.298 99.6289 338.996 97.589 341.239 95.069C334.128 91.7356 325.395 92.9756 319.519 98.8556C318.214 100.149 317.152 101.602 316.303 103.149C318.487 103.802 320.546 104.989 322.27 106.709L323.959 108.402L330.418 114.856L324.908 127.549L328.354 130.989L328.879 131.522L329.692 131.296L341.784 127.922L342.174 129.309C343.78 128.442 345.294 127.336 346.65 125.989C352.326 120.309 353.692 111.962 350.766 104.989" fill="#DECCC0" />
        <path id="path218" d="M323.002 129.455L310.31 134.962L303.854 128.509L302.164 126.815C300.439 125.095 299.252 123.029 298.599 120.842C297.063 121.695 295.611 122.762 294.307 124.069C288.431 129.935 287.186 138.669 290.53 145.789C293.044 143.549 295.082 141.842 296.503 140.696C297.871 139.589 298.679 138.975 298.732 138.935L299.532 140.029C299.456 140.082 297.819 141.309 295.118 143.589C293.978 144.549 292.655 145.696 291.163 147.029C291.626 147.842 292.15 148.642 292.743 149.402C293.226 150.015 293.738 150.629 294.307 151.189C295.779 152.669 297.432 153.842 299.192 154.735C302.295 148.655 304.683 145.495 304.834 145.309L305.903 146.122C305.831 146.215 303.499 149.335 300.454 155.322C307.423 158.242 315.764 156.869 321.439 151.189C322.796 149.842 323.899 148.322 324.763 146.722L323.372 146.335L326.747 134.229L326.974 133.429L326.447 132.896L323.002 129.455" fill="#DECCC0" />
        <path id="path220" d="M340.867 130.976L329.579 134.122L326.427 145.416C328.867 146.509 334.514 148.242 339.108 143.656C343.702 139.056 341.963 133.416 340.867 130.976" fill="#AC4A55" />
        <path id="path222" d="M295.118 143.589C297.819 141.309 299.456 140.082 299.532 140.029L298.732 138.936C298.679 138.976 297.871 139.589 296.503 140.696C295.082 141.842 293.044 143.549 290.53 145.789C282.591 152.856 270.055 165.202 258.163 181.802C257.267 183.056 256.375 184.336 255.488 185.629C249.618 194.229 244.004 203.869 239.307 214.429L240.54 214.976C245.242 204.402 250.867 194.776 256.748 186.176C257.766 184.682 258.792 183.229 259.822 181.802C271.351 165.869 283.402 153.962 291.163 147.029C292.655 145.696 293.978 144.549 295.118 143.589" fill="#F1E8E1" />
        <path id="path224" d="M299.192 154.736C297.531 157.976 295.671 162.056 293.831 166.989C292.304 171.096 290.71 176.056 289.28 181.802C288.734 184.016 288.21 186.336 287.724 188.776C287.53 189.749 287.347 190.762 287.164 191.776C285.212 202.656 284.034 215.642 284.672 230.602L286.022 230.536C285.416 216.376 286.442 203.922 288.29 193.229C288.378 192.722 288.47 192.216 288.56 191.709C289.2 188.216 289.926 184.909 290.711 181.802C293.655 170.162 297.41 161.296 300.454 155.322C303.499 149.336 305.831 146.216 305.903 146.122L304.834 145.309C304.683 145.496 302.295 148.656 299.192 154.736" fill="#F1E8E1" />
        <path id="path226" d="M381.631 61.2957C390.224 55.4157 399.856 49.7889 410.427 45.0823L409.88 43.8556C399.319 48.5489 389.687 54.1624 381.084 60.029C362.548 72.6824 348.844 86.5357 341.239 95.069C338.996 97.589 337.298 99.6289 336.146 101.056C335.04 102.416 334.435 103.229 334.395 103.282L335.48 104.082C335.536 104.002 336.766 102.362 339.04 99.669C340.002 98.5223 341.144 97.2023 342.478 95.709C350.038 87.2556 363.488 73.709 381.631 61.2957" fill="#F1E8E1" />
        <path id="path228" d="M387.232 91.7357C386.256 91.9091 385.294 92.0957 384.347 92.2824C368.938 95.3757 357.492 100.082 350.207 103.789C344.059 106.909 340.858 109.309 340.763 109.376L341.584 110.442C341.676 110.376 344.786 108.042 350.766 104.989C358.34 101.122 370.55 96.1224 387.171 93.0824C387.658 93.0024 388.146 92.9091 388.639 92.8291C399.343 90.9758 411.803 89.9491 425.994 90.5624L426.051 89.2157C411.242 88.589 398.291 89.7357 387.232 91.7357" fill="#F1E8E1" />
        <path id="path230" d="M445.306 173.616C445.03 173.336 444.745 173.082 444.465 172.816C443.3 176.242 441.38 179.456 438.653 182.189C429.127 191.709 413.681 191.709 404.153 182.189C397.777 175.802 395.692 166.789 397.851 158.656C387.311 160.496 377.212 165.482 369.072 173.616C348.022 194.669 348.022 228.802 369.072 249.856L429.329 310.109C450.38 331.162 484.511 331.162 505.563 310.109C526.613 289.056 526.613 254.922 505.563 233.869L445.306 173.616" fill="#827069" />
        <path id="path232" d="M342.723 23.2036C343.103 18.6436 341.558 13.9502 338.07 10.4569C331.779 4.16354 321.58 4.16354 315.29 10.4569C313.039 12.7102 311.61 15.4569 310.97 18.3502C321.703 17.5369 332.584 19.1503 342.723 23.2036Z" fill="#4B4245" />
        <path id="path234" d="M213.803 115.509C210.912 116.149 208.16 117.589 205.911 119.829C199.62 126.122 199.62 136.322 205.911 142.616C209.4 146.096 214.091 147.656 218.651 147.269C214.598 137.122 212.99 126.256 213.803 115.509" fill="#4B4245" />
        <path id="path236" d="M342.188 79.0429C343.08 79.9363 343.57 81.1229 343.57 82.3763C343.57 83.6429 343.08 84.8296 342.188 85.7229C340.35 87.5496 337.354 87.5496 335.515 85.7229L333.608 87.6297C335.054 89.0697 336.952 89.7896 338.851 89.7896C340.75 89.7896 342.648 89.0697 344.094 87.6297C345.495 86.2297 346.266 84.3629 346.266 82.3763C346.266 80.4029 345.495 78.5363 344.094 77.1363L342.188 79.0429" fill="#4B4245" />
        <path id="path238" d="M281.172 140.056C283.011 141.896 283.011 144.896 281.172 146.736C279.338 148.562 276.338 148.576 274.498 146.736L272.59 148.642C274.036 150.082 275.935 150.802 277.834 150.802C279.735 150.802 281.634 150.082 283.08 148.642C285.968 145.749 285.968 141.042 283.08 138.149L281.172 140.056" fill="#4B4245" />
        <path id="path240" d="M341.784 127.922L329.692 131.296L328.879 131.522L328.354 130.989L324.908 127.549L330.418 114.856L323.959 108.402L322.27 106.709C320.546 104.989 318.487 103.802 316.303 103.149C311.458 101.696 305.991 102.882 302.164 106.709C298.338 110.536 297.15 116.002 298.599 120.842C299.252 123.029 300.439 125.096 302.164 126.816L303.854 128.509L310.31 134.962L323.002 129.456L326.447 132.896L326.974 133.429L326.747 134.229L323.372 146.336L324.763 146.722L325.97 147.056L326.427 145.416L329.579 134.122L340.867 130.976L342.511 130.509L342.174 129.309L341.784 127.922" fill="#4B4245" />
        <path id="path242" d="M626.159 306.069L575.636 255.549C573.946 253.856 572.067 252.482 570.082 251.362C560.34 245.882 547.782 247.256 539.491 255.549C529.51 265.536 529.51 281.709 539.491 291.696L581.955 334.162L590.014 342.216C599.995 352.202 616.178 352.202 626.159 342.216C636.139 332.229 636.139 316.056 626.159 306.069" fill="#4B4245" />
        <path id="path244" d="M529.614 386.495L487.148 344.029C477.168 334.055 460.984 334.055 451.004 344.029C442.714 352.322 441.334 364.882 446.815 374.629C447.934 376.615 449.314 378.495 451.004 380.175L501.527 430.709C511.508 440.682 527.691 440.682 537.672 430.709C547.652 420.722 547.652 404.535 537.672 394.562L529.614 386.495" fill="#4B4245" />
        <path id="path246" d="M438.654 147.682C429.127 138.149 413.682 138.149 404.154 147.682C401.003 150.829 398.918 154.642 397.851 158.656C395.692 166.789 397.778 175.802 404.154 182.189C413.682 191.709 429.127 191.709 438.654 182.189C441.38 179.456 443.3 176.242 444.466 172.816C447.372 164.296 445.455 154.482 438.654 147.682Z" fill="#4B4245" />
        <path id="path248" d="M213.202 224.456C221.842 224.456 228.846 217.442 228.846 208.802C228.846 200.162 221.842 193.162 213.202 193.162C204.563 193.162 197.56 200.162 197.56 208.802C197.56 217.442 204.563 224.456 213.202 224.456Z" fill="#4B4245" />
        <path id="path250" d="M189.13 212.855C191.363 212.855 193.174 211.042 193.174 208.802C193.174 206.576 191.363 204.762 189.13 204.762C186.896 204.762 185.086 206.576 185.086 208.802C185.086 211.042 186.896 212.855 189.13 212.855Z" fill="#4B4245" />
        <path id="path252" d="M195.178 198.402C197.411 198.402 199.22 196.589 199.22 194.349C199.22 192.122 197.411 190.309 195.178 190.309C192.944 190.309 191.135 192.122 191.135 194.349C191.135 196.589 192.944 198.402 195.178 198.402Z" fill="#4B4245" />
        <path id="path254" d="M195.178 227.309C197.411 227.309 199.22 225.496 199.22 223.269C199.22 221.029 197.411 219.216 195.178 219.216C192.944 219.216 191.135 221.029 191.135 223.269C191.135 225.496 192.944 227.309 195.178 227.309Z" fill="#4B4245" />
        <g id="water">
            <path id="path256" d="M105.196 476.269C129.03 500.096 152.863 523.934 176.698 547.769C180.384 551.456 186.106 545.737 182.418 542.049C158.584 518.214 134.751 494.376 110.916 470.549C107.23 466.856 101.508 472.576 105.196 476.269" fill="#5F8C95" />
            <path id="path258" d="M271.163 638.276C285.863 656.274 307.014 666.469 330.191 667.2C335.398 667.364 335.392 659.274 330.191 659.11C308.979 658.441 290.272 648.949 276.884 632.555C273.588 628.521 267.896 634.274 271.163 638.276Z" fill="#5F8C95" />
            <path id="path260" d="M382.546 645.93C411.056 655.049 440.97 653.905 468.643 642.452C473.387 640.488 471.307 632.657 466.494 634.65C440.064 645.589 411.952 646.848 384.696 638.129C379.727 636.54 377.599 644.348 382.546 645.93" fill="#5F8C95" />
            <path id="path262" d="M433.836 492.362C449.334 502.962 456.564 521.82 452.295 540.064C451.11 545.128 458.908 547.289 460.095 542.213C465.228 520.277 456.494 498.069 437.919 485.389C433.61 482.442 429.559 489.442 433.836 492.362Z" fill="#5F8C95" />
            <path id="path264" d="M164.483 198.962C165.824 189.442 171.738 181.122 180.851 177.602C185.654 175.736 183.566 167.909 178.699 169.802C167.09 174.296 158.44 184.336 156.683 196.816C155.966 201.909 163.759 204.109 164.483 198.962" fill="#5F8C95" />
            <path id="path266" d="M243.903 41.1231C256.027 26.0431 269.632 9.48319 290.431 8.22986C295.604 7.90986 295.64 -0.183498 290.431 0.136502C267.176 1.5365 251.911 18.3231 238.183 35.3898C234.951 39.4164 240.64 45.1764 243.903 41.1231" fill="#5F8C95" />
            <path id="path268" d="M355.751 321.042C374.644 340.282 393.382 359.682 412.275 378.936C415.927 382.656 421.646 376.936 417.995 373.216C399.102 353.962 380.364 334.562 361.472 315.322C357.819 311.602 352.1 317.322 355.751 321.042Z" fill="#5F8C95" />
            <path id="path270" d="M492.082 456.975C505.016 462.909 518.736 464.162 532.476 460.309C537.482 458.895 535.356 451.095 530.327 452.509C518.778 455.749 507.106 455.015 496.164 449.989C491.466 447.829 487.35 454.802 492.082 456.975Z" fill="#5F8C95" />
            <path id="path272" d="M621.306 374.389C631.643 397.376 637.07 421.509 637.747 446.709C637.886 451.909 645.976 451.936 645.836 446.709C645.12 420.056 639.226 394.629 628.291 370.296C626.16 365.562 619.187 369.669 621.306 374.389Z" fill="#5F8C95" />
            <path id="path274" d="M654.062 346.763C659.872 333.189 659.516 318.842 652.696 305.682C650.302 301.056 643.318 305.149 645.712 309.763C651.072 320.109 651.68 331.922 647.076 342.682C645.05 347.416 652.018 351.536 654.062 346.763Z" fill="#5F8C95" />
            <path id="path276" d="M633.362 281.776C629.867 278.282 626.371 274.789 622.875 271.296C619.19 267.602 613.468 273.322 617.155 277.016C620.651 280.509 624.146 284.002 627.642 287.496C631.328 291.189 637.05 285.469 633.362 281.776Z" fill="#5F8C95" />
            <path id="path278" d="M456.282 117.536C473.286 133.589 490.288 149.656 507.292 165.709C511.076 169.282 516.807 163.576 513.012 159.989C496.01 143.936 479.006 127.869 462.002 111.816C458.218 108.242 452.487 113.949 456.282 117.536Z" fill="#5F8C95" />
        </g>
    </g>
</svg>
