<svg width="272" height="348" viewBox="0 0 272 348" fill="none" xmlns="http://www.w3.org/2000/svg">
    <g id="otter-hello">
        <path id="path18" d="M185.166 300.408V245.505C185.166 215.254 160.632 190.73 130.379 190.73C100.139 190.73 75.6055 215.254 75.6055 245.505V300.408C92.8455 303.389 111.232 305.039 130.379 305.039C149.539 305.039 167.925 303.389 185.166 300.408Z" fill="#827069" />
        <path id="path20" d="M218.112 43.669C213.819 33.629 207.259 24.8022 199.086 17.7889C186.672 7.12224 170.539 0.655571 152.886 0.655571H107.886C90.2322 0.655571 74.0856 7.12224 61.6723 17.7889C53.5123 24.8022 46.9522 33.629 42.6589 43.669C38.9789 52.2423 36.939 61.6836 36.939 71.6023C36.939 75.5463 37.2722 79.4089 37.8856 83.1782C61.4456 78.2742 82.4856 78.3503 94.5255 79.0436C97.1922 71.6529 104.246 66.3583 112.552 66.3583C114.406 66.3583 116.179 66.6343 117.872 67.1196C120.272 62.669 124.966 59.6436 130.379 59.6436C135.792 59.6436 140.499 62.669 142.899 67.1196C144.592 66.6343 146.366 66.3583 148.206 66.3583C156.526 66.3583 163.579 71.6529 166.246 79.0449C178.286 78.3516 199.326 78.2742 222.872 83.1782C223.499 79.4102 223.832 75.5463 223.832 71.6023C223.832 61.6836 221.792 52.2423 218.112 43.669" fill="#C9AB98" />
        <path id="path22" d="M166.672 80.3716C167.126 82.0183 167.392 83.749 167.392 85.5436C167.392 87.6396 167.046 89.653 166.432 91.541C170.806 92.9677 176.326 95.101 182.672 98.2464C186.259 93.2624 192.099 90.0049 198.726 90.0049C206.912 90.0049 213.952 94.9904 216.952 102.096C219.579 96.5877 221.499 90.6836 222.646 84.5049C199.432 79.6649 178.686 79.6996 166.672 80.3716" fill="#C9AB98" />
        <path id="path24" d="M94.3255 91.4957C93.7122 89.621 93.3789 87.6236 93.3789 85.5436C93.3789 83.749 93.6323 82.0197 94.0989 80.373C82.0856 79.701 61.3388 79.6663 38.1255 84.5049C39.2588 90.6849 41.1789 96.5877 43.8056 102.096C46.8189 94.9904 53.8455 90.0049 62.0455 90.0049C68.6455 90.0049 74.4722 93.2424 78.0588 98.201C79.3788 97.5464 80.6588 96.9276 81.8588 96.377C86.6588 94.185 90.8588 92.621 94.3255 91.4957" fill="#C9AB98" />
        <path id="path26" d="M148.206 104.729C146.286 104.729 144.446 104.438 142.699 103.914L142.086 105.004L140.592 104.166C140.326 104.886 139.886 105.826 139.272 106.81C137.739 109.24 135.006 111.889 130.379 111.889C125.752 111.889 123.032 109.24 121.499 106.81C120.872 105.826 120.446 104.886 120.166 104.166L118.686 105.004L118.072 103.914C116.326 104.438 114.472 104.729 112.552 104.729C104.539 104.729 97.6724 99.7969 94.8057 92.8036C90.5124 94.1983 85.0857 96.2863 78.8457 99.3703C80.739 102.401 81.8457 105.966 81.8457 109.797V120.949V137.594C89.899 140.778 98.6857 142.548 107.886 142.548H152.886C162.086 142.548 170.859 140.778 178.926 137.594V120.949V109.797C178.926 105.966 180.032 102.402 181.912 99.3716C175.686 96.2876 170.246 94.1983 165.966 92.8036C163.099 99.7969 156.232 104.729 148.206 104.729" fill="#C9AB98" />
        <path id="path28" d="M36.939 31.3756C36.939 36.3089 39.1656 40.7223 42.6589 43.6689C46.9522 33.6289 53.5123 24.8022 61.6723 17.7889C59.179 16.2022 56.2189 15.2689 53.0456 15.2689C44.1523 15.2689 36.939 22.4689 36.939 31.3756Z" fill="#B28B74" />
        <path id="path30" d="M207.725 15.2689C204.552 15.2689 201.592 16.2022 199.085 17.7889C207.259 24.8022 213.819 33.6289 218.112 43.6689C221.605 40.7223 223.832 36.3089 223.832 31.3756C223.832 22.4689 216.619 15.2689 207.725 15.2689" fill="#B28B74" />
        <path id="path32" d="M116.166 73.8609C116.166 71.4209 116.779 69.1263 117.872 67.1196C116.179 66.6343 114.406 66.3583 112.552 66.3583C104.246 66.3583 97.1922 71.6529 94.5255 79.0436C101.126 79.4249 105.032 79.9863 105.166 80.0077L104.966 81.3397C104.832 81.3197 100.832 80.749 94.099 80.373C93.6323 82.0197 93.3789 83.7489 93.3789 85.5436C93.3789 87.6236 93.7122 89.621 94.3255 91.4957C100.819 89.3917 104.726 88.8542 104.979 88.8222L105.152 90.1596C105.032 90.1756 101.192 90.7263 94.8056 92.8036C97.6723 99.7969 104.539 104.729 112.552 104.729C114.472 104.729 116.326 104.438 118.072 103.914L117.366 102.654L128.299 96.4903L129.032 96.0756V95.3316V90.4596L116.166 85.381V73.8609" fill="#B28B74" />
        <path id="path34" d="M166.432 91.541C167.046 89.653 167.392 87.6396 167.392 85.5436C167.392 83.7489 167.126 82.0183 166.672 80.3716C159.939 80.7476 155.939 81.3197 155.806 81.3397L155.606 80.0077C155.739 79.9863 159.646 79.4249 166.246 79.0449C163.579 71.6529 156.526 66.3583 148.206 66.3583C146.366 66.3583 144.592 66.6343 142.899 67.1196C143.979 69.1263 144.606 71.4209 144.606 73.8609V85.381L131.726 90.4596V95.3316V96.0756L132.472 96.4903L143.406 102.654L142.699 103.914C144.446 104.438 146.286 104.729 148.206 104.729C156.232 104.729 163.099 99.7969 165.966 92.8036C159.579 90.7276 155.726 90.1756 155.619 90.1596L155.792 88.8222C155.912 88.8382 159.872 89.4037 166.432 91.541Z" fill="#B28B74" />
        <path id="path36" d="M130.379 98.4103L120.166 104.166C120.446 104.886 120.872 105.826 121.499 106.81C123.032 109.24 125.752 111.889 130.379 111.889C135.005 111.889 137.739 109.24 139.272 106.81C139.886 105.826 140.325 104.886 140.592 104.166L130.379 98.4103Z" fill="#AC4A55" />
        <path id="path38" d="M131.725 90.4597L144.605 85.381V73.861C144.605 71.421 143.979 69.1263 142.899 67.1197C140.499 62.669 135.792 59.6436 130.379 59.6436C124.965 59.6436 120.272 62.669 117.872 67.1197C116.779 69.1263 116.166 71.421 116.166 73.861V85.381L129.032 90.4597V95.3317V96.0757L128.299 96.4904L117.366 102.654L118.072 103.914L118.685 105.004L120.166 104.166L130.379 98.4103L140.592 104.166L142.085 105.004L142.699 103.914L143.405 102.654L132.472 96.4904L131.725 96.0757V95.3317V90.4597" fill="#4B4245" />
        <path id="path40" d="M222.872 83.1781C199.325 78.2741 178.285 78.3514 166.245 79.0448C159.645 79.4248 155.739 79.9862 155.605 80.0075L155.805 81.3396C155.939 81.3196 159.939 80.7475 166.672 80.3715C178.685 79.6995 199.432 79.6648 222.645 84.5048C231.685 86.3901 241.099 89.0035 250.512 92.6235L250.992 91.3648C241.499 87.7128 232.005 85.0781 222.872 83.1781" fill="#E4D4C9" />
        <path id="path42" d="M218.512 123.088V124.906C222.099 128.217 225.726 131.828 229.352 135.788L230.352 134.877C226.379 130.552 222.419 126.649 218.512 123.088Z" fill="#E4D4C9" />
        <path id="path44" d="M155.792 88.8222L155.619 90.1596C155.726 90.1756 159.579 90.7276 165.966 92.8036C170.246 94.1983 175.686 96.2876 181.912 99.3716C182.152 98.9876 182.406 98.613 182.672 98.2463C176.326 95.101 170.806 92.9677 166.432 91.541C159.872 89.4037 155.912 88.8382 155.792 88.8222" fill="#E4D4C9" />
        <path id="path46" d="M37.8855 83.1781C28.7655 85.0768 19.2723 87.7115 9.76562 91.3648L10.2589 92.6235C19.6722 89.0035 29.0855 86.3901 38.1255 84.5048C61.3389 79.6661 82.0856 79.7009 94.099 80.3729C100.832 80.7489 104.832 81.3196 104.966 81.3396L105.166 80.0075C105.032 79.9862 101.126 79.4248 94.5255 79.0435C82.4855 78.3501 61.4455 78.2741 37.8855 83.1781" fill="#E4D4C9" />
        <path id="path48" d="M30.4058 134.877L31.4058 135.788C35.0458 131.828 38.6723 128.216 42.259 124.904V123.082C38.3523 126.633 34.3924 130.54 30.4058 134.877Z" fill="#E4D4C9" />
        <path id="path50" d="M94.3255 91.4955C90.8588 92.6208 86.6588 94.1848 81.8588 96.3768C80.6588 96.9274 79.3788 97.5462 78.0588 98.2008C78.3388 98.5808 78.6056 98.9715 78.8456 99.3701C85.0856 96.2861 90.5122 94.1981 94.8056 92.8035C101.192 90.7261 105.032 90.1754 105.152 90.1594L104.979 88.8221C104.726 88.8541 100.819 89.3915 94.3255 91.4955" fill="#E4D4C9" />
        <path id="path52" d="M216.952 102.096C213.952 94.9902 206.912 90.0048 198.725 90.0048C192.099 90.0048 186.259 93.2622 182.672 98.2462C182.406 98.6129 182.152 98.9875 181.912 99.3715C180.032 102.402 178.925 105.966 178.925 109.797V120.949V137.594C170.859 140.778 162.085 142.548 152.885 142.548H107.885C98.6855 142.548 89.8988 140.778 81.8455 137.594V120.949V109.797C81.8455 105.966 80.7388 102.401 78.8455 99.3702C78.6055 98.9715 78.3388 98.5809 78.0588 98.2009C74.4721 93.2422 68.6455 90.0048 62.0455 90.0048C53.8455 90.0048 46.8189 94.9902 43.8055 102.096C42.8055 104.462 42.2588 107.066 42.2588 109.797V123.082V124.904V194.481V219.493V292.557C52.7255 295.761 63.8989 298.382 75.6055 300.408V245.505C75.6055 215.254 100.139 190.73 130.379 190.73C160.632 190.73 185.166 215.254 185.166 245.505V300.408C196.859 298.382 208.045 295.761 218.512 292.557V219.493V194.481V124.906V123.087V109.797C218.512 107.065 217.952 104.462 216.952 102.096" fill="#746259" />
        <path id="path60" d="M87.2455 69.3596C83.8855 69.3596 81.1655 66.6436 81.1655 63.293V59.2476C81.1655 55.897 83.8855 53.1756 87.2455 53.1756C90.5921 53.1756 93.3121 55.897 93.3121 59.2476V63.293C93.3121 66.6436 90.5921 69.3596 87.2455 69.3596Z" fill="#4B4245" />
        <path id="path62" d="M173.526 69.3596C170.179 69.3596 167.459 66.6436 167.459 63.293V59.2476C167.459 55.897 170.179 53.1756 173.526 53.1756C176.886 53.1756 179.592 55.897 179.592 59.2476V63.293C179.592 66.6436 176.886 69.3596 173.526 69.3596Z" fill="#4B4245" />
        <path id="path64" d="M210.192 117.369C210.192 123.702 205.059 128.836 198.725 128.836C192.392 128.836 187.259 123.702 187.259 117.369C187.259 111.036 192.392 105.902 198.725 105.902C205.059 105.902 210.192 111.036 210.192 117.369Z" fill="#4B4245" />
        <path id="path66" d="M201.686 99.7222C201.686 101.36 200.352 102.686 198.726 102.686C197.086 102.686 195.752 101.36 195.752 99.7222C195.752 98.0849 197.086 96.7583 198.726 96.7583C200.352 96.7583 201.686 98.0849 201.686 99.7222Z" fill="#4B4245" />
        <path id="path68" d="M191.085 104.156C191.085 105.793 189.765 107.12 188.125 107.12C186.485 107.12 185.166 105.793 185.166 104.156C185.166 102.518 186.485 101.192 188.125 101.192C189.765 101.192 191.085 102.518 191.085 104.156Z" fill="#4B4245" />
        <path id="path70" d="M212.286 104.156C212.286 105.793 210.952 107.12 209.312 107.12C207.672 107.12 206.352 105.793 206.352 104.156C206.352 102.518 207.672 101.192 209.312 101.192C210.952 101.192 212.286 102.518 212.286 104.156Z" fill="#4B4245" />
        <path id="path72" d="M73.5122 117.369C73.5122 123.702 68.3789 128.836 62.0455 128.836C55.7122 128.836 50.5789 123.702 50.5789 117.369C50.5789 111.036 55.7122 105.902 62.0455 105.902C68.3789 105.902 73.5122 111.036 73.5122 117.369Z" fill="#4B4245" />
        <path id="path74" d="M65.0055 99.7222C65.0055 101.36 63.6855 102.686 62.0455 102.686C60.4055 102.686 59.0854 101.36 59.0854 99.7222C59.0854 98.0849 60.4055 96.7583 62.0455 96.7583C63.6855 96.7583 65.0055 98.0849 65.0055 99.7222Z" fill="#4B4245" />
        <path id="path76" d="M54.4189 104.156C54.4189 105.793 53.0856 107.12 51.4456 107.12C49.819 107.12 48.4856 105.793 48.4856 104.156C48.4856 102.518 49.819 101.192 51.4456 101.192C53.0856 101.192 54.4189 102.518 54.4189 104.156Z" fill="#4B4245" />
        <path id="path78" d="M75.6056 104.156C75.6056 105.793 74.2856 107.12 72.6456 107.12C71.0056 107.12 69.6855 105.793 69.6855 104.156C69.6855 102.518 71.0056 101.192 72.6456 101.192C74.2856 101.192 75.6056 102.518 75.6056 104.156Z" fill="#4B4245" />
        <g id="water">
            <path id="path54" d="M48.1121 315.582C22.2188 314.098 6.32539 289.936 14.0854 265.446C15.6587 260.472 7.84539 258.342 6.28539 263.296C-3.14127 293.073 17.1521 321.898 48.1121 323.672C53.3121 323.97 53.2987 315.88 48.1121 315.582" fill="#5F8C95" />
            <path id="path56" d="M253.792 254.4C248.966 252.46 246.872 260.281 251.646 262.201C276.086 272.014 257.592 299.677 243.926 308.569C231.286 316.789 216.526 321.724 201.832 324.721C172.499 330.706 142.112 328.66 112.472 326.658C107.272 326.308 107.299 334.4 112.472 334.748C154.552 337.589 199.699 340.188 238.619 320.837C252.859 313.757 268.099 302.542 270.872 285.752C273.086 272.234 266.472 259.493 253.792 254.4" fill="#5F8C95" />
            <path id="path58" d="M33.8589 339.815C24.3523 337.389 15.5656 333.245 7.81896 327.193C3.76562 324.026 -1.9943 329.711 2.09903 332.914C10.979 339.843 20.779 344.827 31.7123 347.615C36.7523 348.903 38.9123 341.103 33.8589 339.815" fill="#5F8C95" />
        </g>
    </g>
</svg>
