<svg width="315" height="304" viewBox="0 0 315 304" fill="none" xmlns="http://www.w3.org/2000/svg">
    <g id="otter-seashell">
        <path id="path280" d="M264.872 114.522C251.899 131.189 231.646 141.909 208.886 141.909H163.886C157.859 141.909 152.006 141.149 146.419 139.736C130.899 135.816 117.446 126.762 107.899 114.522C101.966 106.909 97.5524 98.0691 95.1124 88.4291L51.7417 45.0691C41.1964 34.5225 24.1018 34.5225 13.5564 45.0691C3.01244 55.6158 3.01244 72.709 13.5564 83.2557L98.259 167.949V233.549C109.126 237.389 120.566 240.536 132.486 242.922V229.189C132.486 199.416 156.619 175.282 186.392 175.282C216.152 175.282 240.286 199.416 240.286 229.189V242.922C252.206 240.536 263.646 237.389 274.512 233.549V154.576C274.512 140.149 271.019 126.536 264.872 114.522" fill="#746259" />
        <path id="path282" d="M117.672 17.1502C115.179 15.5635 112.219 14.6303 109.046 14.6303C100.152 14.6303 92.9363 21.8436 92.9363 30.7369C92.9363 35.6702 95.1656 40.0836 98.6589 43.0303C102.952 33.0036 109.512 24.1769 117.672 17.1502Z" fill="#685246" />
        <path id="path284" d="M274.112 43.0303C277.606 40.0836 279.832 35.6702 279.832 30.7369C279.832 21.8436 272.619 14.6303 263.726 14.6303C260.552 14.6303 257.592 15.5635 255.099 17.1502C263.259 24.1769 269.819 33.0036 274.112 43.0303Z" fill="#685246" />
        <path id="path286" d="M274.112 43.029C269.819 33.0023 263.259 24.1756 255.099 17.1489C242.672 6.48225 226.539 0.0155846 208.886 0.0155846H163.886C146.232 0.0155846 130.099 6.48225 117.672 17.1489C109.512 24.1756 102.952 33.0023 98.6589 43.029C94.9789 51.6023 92.9363 61.0423 92.9363 70.9623C92.9363 76.989 93.6937 82.8423 95.1123 88.429C97.5523 98.069 101.966 106.909 107.899 114.522C117.446 126.762 130.899 135.816 146.419 139.736C152.006 141.149 157.859 141.909 163.886 141.909H208.886C231.646 141.909 251.899 131.189 264.872 114.522C274.246 102.496 279.832 87.389 279.832 70.9623C279.832 61.0423 277.792 51.6023 274.112 43.029" fill="#B28B74" />
        <path id="path288" d="M172.166 73.229C172.166 71.149 172.619 69.189 173.419 67.4023C173.566 67.0957 173.712 66.789 173.872 66.4823C172.179 66.0023 170.406 65.7223 168.566 65.7223C162.592 65.7223 157.272 68.4423 153.752 72.7223C151.019 76.0289 149.379 80.2823 149.379 84.909C149.379 95.509 157.966 104.096 168.566 104.096C170.472 104.096 172.326 103.802 174.072 103.282L173.366 102.016L184.299 95.8556L185.032 95.4423V94.6957V89.829L172.166 84.749V73.229" fill="#C9AB98" />
        <path id="path290" d="M219.019 72.7223C215.499 68.4423 210.179 65.7223 204.219 65.7223C202.366 65.7223 200.592 66.0023 198.899 66.4823C199.059 66.789 199.206 67.0957 199.352 67.4023C200.152 69.189 200.606 71.149 200.606 73.229V84.749L187.739 89.829V94.6957V95.4423L188.472 95.8556L199.406 102.016L198.699 103.282C200.446 103.802 202.299 104.096 204.219 104.096C214.806 104.096 223.392 95.509 223.392 84.909C223.392 80.2823 221.752 76.0289 219.019 72.7223" fill="#C9AB98" />
        <path id="path292" d="M176.179 103.536C177.126 106.029 179.886 111.256 186.392 111.256C192.886 111.256 195.646 106.029 196.592 103.536L186.392 97.7757L176.179 103.536Z" fill="#AC4A55" />
        <path id="path294" d="M187.739 89.829L200.605 84.7489V73.229C200.605 71.149 200.152 69.1889 199.352 67.4023C199.205 67.0956 199.059 66.7889 198.899 66.4822C196.499 62.0289 191.792 59.0023 186.392 59.0023C180.979 59.0023 176.272 62.0289 173.872 66.4822C173.712 66.7889 173.565 67.0956 173.419 67.4023C172.619 69.1889 172.166 71.149 172.166 73.229V84.7489L185.032 89.829V94.6956V95.4423L184.299 95.8555L173.366 102.016L174.072 103.282L174.685 104.362L176.179 103.536L186.392 97.7756L196.592 103.536L198.085 104.362L198.699 103.282L199.405 102.016L188.472 95.8555L187.739 95.4423V94.6956V89.829" fill="#4B4245" />
        <path id="path296" d="M143.246 68.7231C139.886 68.7231 137.179 66.0031 137.179 62.6565V58.6165C137.179 55.2565 139.886 52.5498 143.246 52.5498C146.592 52.5498 149.312 55.2565 149.312 58.6165V62.6565C149.312 66.0031 146.592 68.7231 143.246 68.7231Z" fill="#4B4245" />
        <path id="path298" d="M229.526 68.7231C226.179 68.7231 223.459 66.0031 223.459 62.6565V58.6165C223.459 55.2565 226.179 52.5498 229.526 52.5498C232.886 52.5498 235.592 55.2565 235.592 58.6165V62.6565C235.592 66.0031 232.886 68.7231 229.526 68.7231Z" fill="#4B4245" />
        <path id="path300" d="M306.512 91.9888C259.379 73.8688 212.272 80.6288 211.805 80.7088L211.605 79.3755C212.072 79.2955 259.525 72.4821 307.005 90.7221L306.512 91.9888Z" fill="#E4D4C9" />
        <path id="path302" d="M285.366 135.149C248.232 94.7089 211.979 89.5756 211.619 89.5222L211.792 88.1889C212.152 88.2289 248.872 93.4156 286.352 134.242L285.366 135.149" fill="#E4D4C9" />
        <path id="path304" d="M66.2575 91.9888L65.7722 90.7221C113.259 72.4821 160.699 79.2955 161.166 79.3755L160.966 80.7088C160.499 80.6288 113.392 73.8688 66.2575 91.9888" fill="#E4D4C9" />
        <path id="path306" d="M87.4109 135.149L86.4163 134.242C105.992 112.922 125.206 101.536 137.872 95.7356C151.619 89.4556 160.606 88.2422 160.979 88.1889L161.152 89.5222C160.792 89.5756 124.539 94.7089 87.4109 135.149" fill="#E4D4C9" />
        <path id="path308" d="M51.0135 60.4031C57.1228 66.5098 57.1228 76.4164 51.0135 82.523C44.9055 88.6297 35.0001 88.6297 28.8908 82.523C22.7828 76.4164 22.7828 66.5098 28.8908 60.4031C35.0001 54.2964 44.9055 54.2964 51.0135 60.4031Z" fill="#4B4245" />
        <path id="path310" d="M25.7896 51.5768C27.3682 53.1634 27.3682 55.7235 25.7896 57.2968C24.2096 58.8835 21.6496 58.8835 20.071 57.2968C18.4923 55.7235 18.4923 53.1634 20.071 51.5768C21.6496 50.0034 24.2096 50.0034 25.7896 51.5768Z" fill="#4B4245" />
        <path id="path312" d="M19.8442 66.0833C21.4229 67.6567 21.4229 70.2167 19.8442 71.8034C18.2655 73.3767 15.7042 73.3767 14.1269 71.8034C12.5469 70.2167 12.5469 67.6567 14.1269 66.0833C15.7042 64.4967 18.2655 64.4967 19.8442 66.0833Z" fill="#4B4245" />
        <path id="path314" d="M40.2868 45.6301C41.8655 47.2168 41.8655 49.7767 40.2868 51.35C38.7082 52.9367 36.1482 52.9367 34.5695 51.35C32.9895 49.7767 32.9895 47.2168 34.5695 45.6301C36.1482 44.0568 38.7082 44.0568 40.2868 45.6301Z" fill="#4B4245" />
        <path id="path316" d="M240.286 242.922V229.189C240.286 199.416 216.152 175.282 186.392 175.282C156.619 175.282 132.486 199.416 132.486 229.189V242.922C149.619 246.349 167.686 248.216 186.392 248.216C205.086 248.216 223.166 246.349 240.286 242.922Z" fill="#827069" />
        <path id="path318" d="M58.891 7.56362C42.403 -2.27638 21.6736 -2.27638 5.18564 7.56362C-0.603689 11.017 -1.49303 19.0835 3.27497 23.8569L24.9923 45.5636L15.935 54.6303C24.8283 63.5236 39.2483 63.5236 48.1403 54.6303L39.083 45.5636L60.8017 23.8569C65.5697 19.0835 64.6803 11.017 58.891 7.56362" fill="#C7BBCA" />
        <path id="path320" d="M33.3869 36.0034H30.6909V9.23011H33.3869V36.0034Z" fill="#AE9FB6" />
        <path id="path322" d="M20.9443 26.27L9.99219 15.3233L11.899 13.4166L22.8509 24.3634L20.9443 26.27Z" fill="#AE9FB6" />
        <path id="path324" d="M43.1337 26.27L41.2271 24.3634L52.179 13.4166L54.0843 15.3233L43.1337 26.27" fill="#AE9FB6" />
        <g id="water">
            <path id="path326" d="M65.9776 212.136C59.3109 227.869 62.7496 244.989 73.8522 257.922C86.7469 272.949 106.699 278.296 125.592 280.629C130.752 281.256 130.699 273.162 125.592 272.536C98.8989 269.242 58.5802 250.176 72.9629 216.216C74.9709 211.482 68.0043 207.349 65.9776 212.136" fill="#5F8C95" />
            <path id="path328" d="M234.539 273.309C258.419 266.176 288.139 263.656 306.286 244.549C322.752 227.242 311.406 210.816 293.912 201.056C289.366 198.509 285.286 205.496 289.832 208.042C299.859 213.629 311.726 222.749 303.499 235.322C298.259 243.309 288.539 248.309 279.992 251.856C264.739 258.202 248.179 260.789 232.392 265.509C227.419 266.989 229.539 274.802 234.539 273.309" fill="#5F8C95" />
            <path id="path330" d="M210.966 303.082C235.512 300.229 259.539 295.229 283.139 287.869C288.099 286.322 285.979 278.509 280.992 280.069C258.099 287.202 234.806 292.216 210.966 294.989C205.859 295.576 205.792 303.682 210.966 303.082" fill="#5F8C95" />
        </g>
    </g>
</svg>
