<svg width="4" height="4" viewBox="0 0 4 4" fill="none" xmlns="http://www.w3.org/2000/svg">
<g clip-path="url(#clip0)">
<path d="M4 2H0V4H4V2Z" fill="#F9CA24"/>
<path d="M1.215 3.76452C0.94175 3.71002 0.6565 3.68402 0.37675 3.71602C0.24875 3.73027 0.1225 3.75752 0 3.79952V4.00002H2.1095C1.81975 3.91702 1.5325 3.82977 1.2405 3.76952C1.232 3.76777 1.2235 3.76627 1.215 3.76452Z" fill="#FBC83B"/>
<path d="M4 2H0V3.7995C0.1225 3.7575 0.24875 3.73 0.37675 3.71575C0.6565 3.684 0.94175 3.70975 1.215 3.76425C1.2235 3.766 1.232 3.76775 1.2405 3.76925C1.5325 3.82925 1.81975 3.91675 2.1095 3.99975H4V2Z" fill="#FCC54C"/>
<path d="M1.196 3.4525C1.204 3.4545 1.212 3.45675 1.21975 3.45875C1.71025 3.59 2.1915 3.7925 2.7035 3.90025C3.139 3.99175 3.57725 3.97325 4 3.87475V2H0V3.43725C0.13075 3.39325 0.26625 3.368 0.40275 3.36C0.671 3.3435 0.93925 3.3855 1.196 3.4525Z" fill="#FDC35B"/>
<path d="M0 2V3.0735C0.139 3.0275 0.28375 3.00525 0.4285 3.00425C0.6855 3.00225 0.9365 3.061 1.17675 3.1405C1.18425 3.143 1.1915 3.1455 1.199 3.148C1.658 3.303 2.11325 3.51325 2.605 3.62825C3.07175 3.7375 3.54575 3.71425 3.99975 3.59675V2H0Z" fill="#FEC069"/>
<path d="M0.4545 2.6485C0.7 2.6635 0.93425 2.7365 1.15775 2.82875C1.16475 2.8315 1.1715 2.8345 1.1785 2.83725C1.606 3.01625 2.03525 3.2335 2.50675 3.3565C3.00375 3.486 3.51525 3.4585 4 3.3195V2H0V2.708C0.1475 2.659 0.3015 2.63925 0.4545 2.6485Z" fill="#FFBE76"/>
<path d="M4 2H0V2.34075C0.15575 2.2885 0.31925 2.272 0.4805 2.29275C0.7145 2.323 0.93175 2.412 1.13875 2.51675C1.14525 2.52 1.1515 2.52325 1.158 2.5265C1.554 2.72925 1.95725 2.95375 2.40875 3.0845C2.935 3.237 3.48575 3.207 4.00025 3.043V2H4Z" fill="#FEC67B"/>
<path d="M1.13725 2.21575C1.50175 2.4425 1.879 2.67325 2.31025 2.8125C2.83175 2.981 3.3885 2.9645 3.905 2.79925C3.937 2.789 3.9685 2.77825 4.00025 2.767V2H0.720245C0.860245 2.05325 0.991995 2.1265 1.1195 2.205C1.1255 2.2085 1.13125 2.21225 1.13725 2.21575Z" fill="#FCCE7F"/>
<path d="M4 2H1.245C1.54025 2.2145 1.85375 2.41125 2.212 2.5405C2.6915 2.7135 3.212 2.72725 3.6995 2.59325C3.8015 2.56525 3.90225 2.53025 4.00025 2.489V2H4Z" fill="#FAD684"/>
<path d="M3.49374 2.387C3.61174 2.3605 3.72774 2.32375 3.84024 2.2775C3.89449 2.25525 3.94774 2.2305 3.99999 2.20375V2H1.60849C1.76574 2.10425 1.93274 2.1955 2.11374 2.2685C2.55099 2.44525 3.03549 2.49025 3.49374 2.387Z" fill="#F8DD88"/>
<path d="M3.28824 2.181C3.47649 2.1495 3.66049 2.08825 3.83024 2H2.02274C2.41699 2.1775 2.86174 2.2525 3.28824 2.181Z" fill="#F6E58D"/>
</g>
<g clip-path="url(#clip1)">
<path d="M4 2H0V0H4V2Z" fill="#F9CA24"/>
<path d="M1.215 0.235476C0.94175 0.289976 0.6565 0.315976 0.37675 0.283976C0.24875 0.269726 0.1225 0.242476 0 0.200476V-2.40675e-05H2.1095C1.81975 0.0829759 1.5325 0.170226 1.2405 0.230476C1.232 0.232226 1.2235 0.233726 1.215 0.235476Z" fill="#FBC83B"/>
<path d="M4 2H0V0.2005C0.1225 0.2425 0.24875 0.27 0.37675 0.28425C0.6565 0.316 0.94175 0.29025 1.215 0.23575C1.2235 0.234 1.232 0.23225 1.2405 0.23075C1.5325 0.17075 1.81975 0.0832498 2.1095 0.000249797H4V2Z" fill="#FCC54C"/>
<path d="M1.196 0.5475C1.204 0.5455 1.212 0.54325 1.21975 0.54125C1.71025 0.41 2.1915 0.2075 2.7035 0.0997499C3.139 0.00824992 3.57725 0.0267498 4 0.12525V2H0V0.56275C0.13075 0.60675 0.26625 0.632 0.40275 0.64C0.671 0.6565 0.93925 0.6145 1.196 0.5475Z" fill="#FDC35B"/>
<path d="M0 2V0.9265C0.139 0.9725 0.28375 0.99475 0.4285 0.99575C0.6855 0.99775 0.9365 0.939 1.17675 0.8595C1.18425 0.857 1.1915 0.8545 1.199 0.852C1.658 0.697 2.11325 0.48675 2.605 0.37175C3.07175 0.2625 3.54575 0.28575 3.99975 0.40325V2H0Z" fill="#FEC069"/>
<path d="M0.4545 1.3515C0.7 1.3365 0.93425 1.2635 1.15775 1.17125C1.16475 1.1685 1.1715 1.1655 1.1785 1.16275C1.606 0.98375 2.03525 0.7665 2.50675 0.6435C3.00375 0.514 3.51525 0.5415 4 0.6805V2H0V1.292C0.1475 1.341 0.3015 1.36075 0.4545 1.3515Z" fill="#FFBE76"/>
<path d="M4 2H0V1.65925C0.15575 1.7115 0.31925 1.728 0.4805 1.70725C0.7145 1.677 0.93175 1.588 1.13875 1.48325C1.14525 1.48 1.1515 1.47675 1.158 1.4735C1.554 1.27075 1.95725 1.04625 2.40875 0.9155C2.935 0.763 3.48575 0.793 4.00025 0.957V2H4Z" fill="#FEC67B"/>
<path d="M1.13725 1.78425C1.50175 1.5575 1.879 1.32675 2.31025 1.1875C2.83175 1.019 3.3885 1.0355 3.905 1.20075C3.937 1.211 3.9685 1.22175 4.00025 1.233V2H0.720245C0.860245 1.94675 0.991995 1.8735 1.1195 1.795C1.1255 1.7915 1.13125 1.78775 1.13725 1.78425Z" fill="#FCCE7F"/>
<path d="M4 2H1.245C1.54025 1.7855 1.85375 1.58875 2.212 1.4595C2.6915 1.2865 3.212 1.27275 3.6995 1.40675C3.8015 1.43475 3.90225 1.46975 4.00025 1.511V2H4Z" fill="#FAD684"/>
<path d="M3.49374 1.613C3.61174 1.6395 3.72774 1.67625 3.84024 1.7225C3.89449 1.74475 3.94774 1.7695 3.99999 1.79625V2H1.60849C1.76574 1.89575 1.93274 1.8045 2.11374 1.7315C2.55099 1.55475 3.03549 1.50975 3.49374 1.613Z" fill="#F8DD88"/>
<path d="M3.28824 1.819C3.47649 1.8505 3.66049 1.91175 3.83024 2H2.02274C2.41699 1.8225 2.86174 1.7475 3.28824 1.819Z" fill="#F6E58D"/>
</g>
<defs>
<clipPath id="clip0">
<rect width="4" height="4" fill="white" transform="translate(0 1)"/>
</clipPath>
<clipPath id="clip1">
<rect width="4" height="4" fill="white" transform="matrix(1 0 0 -1 0 3)"/>
</clipPath>
</defs>
</svg>
