<?xml version="1.0" encoding="utf-8"?><svg xmlns="http://www.w3.org/2000/svg" xmlns:xlink="http://www.w3.org/1999/xlink" width="100%" height="100%" preserveAspectRatio="xMidYMid" viewBox="0 0 1920 250" style="z-index:1;margin-right:-2px;display:block;background-repeat-y:initial;background-repeat-x:initial;animation-play-state:paused" ><g transform="translate(960,125) scale(1,-1) translate(-960,-125)" style="transform:matrix(1, 0, 0, -1, 0, 250);animation-play-state:paused" ><linearGradient id="lg-0.14162363290395996" x1="0" x2="1" y1="0" y2="0" style="animation-play-state:paused" ><stop stop-color="#0a0a0a" offset="0" style="animation-play-state:paused" ></stop>

  
<stop stop-color="#28292f" offset="1" style="animation-play-state:paused" ></stop></linearGradient>
<path d="M 0 0 L 0 150.686 Q 192 163.516 384 125.011 T 768 93.9272 T 1152 79.6223 T 1536 41.9334 T 1920 36.286 L 1920 0 Z" fill="url(#lg-0.14162363290395996)" opacity="0.4" style="opacity:0.4;animation-play-state:paused" ></path>
<path d="M 0 0 L 0 152.29 Q 192 165.029 384 124.964 T 768 96.0871 T 1152 74.7883 T 1536 51.657 T 1920 23.1821 L 1920 0 Z" fill="url(#lg-0.14162363290395996)" opacity="0.4" style="opacity:0.4;animation-play-state:paused" ></path>
<path d="M 0 0 L 0 144.574 Q 192 149.613 384 119.494 T 768 105.408 T 1152 70.2839 T 1536 60.4903 T 1920 29.7206 L 1920 0 Z" fill="url(#lg-0.14162363290395996)" opacity="0.4" style="opacity:0.4;animation-play-state:paused" ></path>
<path d="M 0 0 L 0 147.884 Q 192 136.713 384 120.897 T 768 98.0183 T 1152 79.9144 T 1536 56.2387 T 1920 51.1896 L 1920 0 Z" fill="url(#lg-0.14162363290395996)" opacity="0.4" style="opacity:0.4;animation-play-state:paused" ></path></g></svg>