<?xml version="1.0" encoding="utf-8"?>
<svg xmlns="http://www.w3.org/2000/svg" xmlns:xlink="http://www.w3.org/1999/xlink" width="100%" height="100%" preserveAspectRatio="xMidYMid" viewBox="0 0 1920 910" style="z-index:1;margin-right:-2px;display:block;background-repeat-y:initial;background-repeat-x:initial;animation-play-state:paused">
    <g transform="translate(960,455) scale(-1,1) translate(-960,-455)" style="transform:matrix(-1, 0, 0, 1, 1920, 0);animation-play-state:paused">
        <linearGradient id="lg-0.22487922449601427" x1="0" x2="1" y1="0" y2="0" style="animation-play-state:paused">
            <stop stop-color="#22a6b3" offset="0" style="animation-play-state:paused"></stop>


            <stop stop-color="#4834d4" offset="1" style="animation-play-state:paused"></stop>
        </linearGradient>
        <path d="M 0 0 L 0 834.019 Q 192 737.823 384 699.903 T 768 673.43 T 1152 464.483 T 1536 355.339 T 1920 281.921 L 1920 0 Z" fill="url(#lg-0.22487922449601427)" opacity="0.4" style="opacity:0.4;animation-play-state:paused"></path>
        <path d="M 0 0 L 0 893.847 Q 192 764.952 384 729.975 T 768 626.198 T 1152 542.089 T 1536 402.29 T 1920 303.976 L 1920 0 Z" fill="url(#lg-0.22487922449601427)" opacity="0.4" style="opacity:0.4;animation-play-state:paused"></path>
        <path d="M 0 0 L 0 888.631 Q 192 788.557 384 771.623 T 768 644.051 T 1152 501.32 T 1536 343.407 T 1920 233.128 L 1920 0 Z" fill="url(#lg-0.22487922449601427)" opacity="0.4" style="opacity:0.4;animation-play-state:paused"></path>
        <path d="M 0 0 L 0 869.041 Q 192 808.807 384 764.111 T 768 647.747 T 1152 525.096 T 1536 465.125 T 1920 299.966 L 1920 0 Z" fill="url(#lg-0.22487922449601427)" opacity="0.4" style="opacity:0.4;animation-play-state:paused"></path>
        <path d="M 0 0 L 0 865.125 Q 192 734.296 384 700.658 T 768 666.509 T 1152 477.558 T 1536 410.156 T 1920 341.455 L 1920 0 Z" fill="url(#lg-0.22487922449601427)" opacity="0.4" style="opacity:0.4;animation-play-state:paused"></path>
        <path d="M 0 0 L 0 857.445 Q 192 768.352 384 736.163 T 768 675.828 T 1152 532.443 T 1536 445.746 T 1920 339.006 L 1920 0 Z" fill="url(#lg-0.22487922449601427)" opacity="0.4" style="opacity:0.4;animation-play-state:paused"></path>
    </g>
</svg>