<svg width="4" height="5" viewBox="0 0 4 5" fill="none" xmlns="http://www.w3.org/2000/svg">
<g clip-path="url(#clip0)">
<path d="M1.21492 2.20566C0.941691 2.13753 0.656459 2.10503 0.376726 2.14503C0.248734 2.16284 0.122492 2.19691 0 2.24941V2.50003H2.10937C1.81964 2.39628 1.5324 2.28722 1.24042 2.21191C1.23192 2.20972 1.22342 2.20784 1.21492 2.20566Z" fill="#FFB100"/>
<path d="M3.99975 0H0V2.24937C0.122492 2.19687 0.248734 2.1625 0.376726 2.14469C0.656459 2.105 0.941691 2.13719 1.21492 2.20531C1.22342 2.2075 1.23192 2.20969 1.24042 2.21156C1.5324 2.28656 1.81964 2.39594 2.10937 2.49969H3.99975V0Z" fill="#FFB800"/>
<path d="M1.19593 1.81562C1.20392 1.81812 1.21192 1.82094 1.21967 1.82344C1.71014 1.9875 2.19136 2.24062 2.70333 2.37531C3.1388 2.48969 3.57703 2.46656 3.99975 2.34344V0H0V1.79656C0.130742 1.74156 0.266233 1.71 0.402725 1.7C0.670958 1.67937 0.939191 1.73187 1.19593 1.81562Z" fill="#FFBF00"/>
<path d="M0 0V1.34187C0.138991 1.28437 0.283732 1.25656 0.428473 1.25531C0.685457 1.25281 0.936441 1.32625 1.17668 1.42562C1.18418 1.42875 1.19143 1.43187 1.19893 1.435C1.6579 1.62875 2.11312 1.89156 2.60484 2.03531C3.07156 2.17187 3.54553 2.14281 3.9995 1.99594V0H0Z" fill="#FFC500"/>
<path d="M0.454472 0.810625C0.699956 0.829375 0.934192 0.920625 1.15768 1.03594C1.16468 1.03937 1.17143 1.04312 1.17843 1.04656C1.6059 1.27031 2.03512 1.54187 2.50659 1.69562C3.00356 1.8575 3.51503 1.82312 3.99975 1.64937V0H0V0.885C0.147491 0.82375 0.301481 0.799062 0.454472 0.810625Z" fill="#FFCC00"/>
<path d="M3.99975 0H0V0.425938C0.15574 0.360625 0.31923 0.34 0.48047 0.365938C0.714455 0.40375 0.931692 0.515 1.13868 0.645938C1.14518 0.65 1.15143 0.654063 1.15793 0.658125C1.5539 0.911563 1.95713 1.19219 2.4086 1.35562C2.93482 1.54625 3.48553 1.50875 4 1.30375V0H3.99975Z" fill="#FFD624"/>
<path d="M1.13719 0.269687C1.50167 0.553125 1.87889 0.841562 2.31012 1.01562C2.83158 1.22625 3.3883 1.20562 3.90477 0.999062C3.93676 0.98625 3.96826 0.972812 4.00001 0.95875V0H0.720215C0.860206 0.0665625 0.991948 0.158125 1.11944 0.25625C1.12544 0.260625 1.13119 0.265312 1.13719 0.269687Z" fill="#FFE038"/>
<path d="M3.99973 0H1.2449C1.54014 0.268125 1.85362 0.514062 2.21184 0.675625C2.69131 0.891875 3.21178 0.909063 3.69925 0.741563C3.80124 0.706563 3.90199 0.662813 3.99998 0.61125V0H3.99973Z" fill="#FFEB49"/>
<path d="M3.49353 0.48375C3.61152 0.450625 3.72752 0.404688 3.84001 0.346875C3.89426 0.319063 3.9475 0.288125 3.99975 0.254688V0H1.6084C1.76564 0.130313 1.93263 0.244375 2.11362 0.335625C2.55084 0.556563 3.03531 0.612813 3.49353 0.48375Z" fill="#FFF558"/>
<path d="M3.28803 0.22625C3.47627 0.186875 3.66026 0.110312 3.83 0H2.02261C2.41684 0.221875 2.86156 0.315625 3.28803 0.22625Z" fill="#FFFF66"/>
<path d="M1.215 2.79434C0.94175 2.86247 0.6565 2.89497 0.37675 2.85497C0.24875 2.83716 0.1225 2.80309 0 2.75059V2.49997H2.1095C1.81975 2.60372 1.5325 2.71278 1.2405 2.78809C1.232 2.79028 1.2235 2.79216 1.215 2.79434Z" fill="#FFB100"/>
<path d="M4 5H0V2.75063C0.1225 2.80313 0.24875 2.8375 0.37675 2.85531C0.6565 2.895 0.94175 2.86281 1.215 2.79469C1.2235 2.7925 1.232 2.79031 1.2405 2.78844C1.5325 2.71344 1.81975 2.60406 2.1095 2.50031H4V5Z" fill="#FFB800"/>
<path d="M1.196 3.18437C1.204 3.18187 1.212 3.17906 1.21975 3.17656C1.71025 3.0125 2.1915 2.75938 2.7035 2.62469C3.139 2.51031 3.57725 2.53344 4 2.65656V5H0V3.20344C0.13075 3.25844 0.26625 3.29 0.40275 3.3C0.671 3.32062 0.93925 3.26812 1.196 3.18437Z" fill="#FFBF00"/>
<path d="M0 5V3.65812C0.139 3.71562 0.28375 3.74344 0.4285 3.74469C0.6855 3.74719 0.9365 3.67375 1.17675 3.57437C1.18425 3.57125 1.1915 3.56812 1.199 3.565C1.658 3.37125 2.11325 3.10844 2.605 2.96469C3.07175 2.82812 3.54575 2.85719 3.99975 3.00406V5H0Z" fill="#FFC500"/>
<path d="M0.4545 4.18938C0.7 4.17063 0.93425 4.07938 1.15775 3.96406C1.16475 3.96063 1.1715 3.95688 1.1785 3.95344C1.606 3.72969 2.03525 3.45813 2.50675 3.30438C3.00375 3.1425 3.51525 3.17688 4 3.35063V5H0V4.115C0.1475 4.17625 0.3015 4.20094 0.4545 4.18938Z" fill="#FFCC00"/>
<path d="M4 5H0V4.57406C0.15575 4.63937 0.31925 4.66 0.4805 4.63406C0.7145 4.59625 0.93175 4.485 1.13875 4.35406C1.14525 4.35 1.1515 4.34594 1.158 4.34187C1.554 4.08844 1.95725 3.80781 2.40875 3.64438C2.935 3.45375 3.48575 3.49125 4.00025 3.69625V5H4Z" fill="#FFD624"/>
<path d="M1.13725 4.73031C1.50175 4.44688 1.879 4.15844 2.31025 3.98438C2.83175 3.77375 3.3885 3.79438 3.905 4.00094C3.937 4.01375 3.96849 4.02719 4.00024 4.04125V5H0.720245C0.860245 4.93344 0.991995 4.84188 1.1195 4.74375C1.1255 4.73938 1.13125 4.73469 1.13725 4.73031Z" fill="#FFE038"/>
<path d="M4 5H1.245C1.54025 4.73187 1.85375 4.48594 2.212 4.32437C2.6915 4.10813 3.212 4.09094 3.6995 4.25844C3.8015 4.29344 3.90225 4.33719 4.00025 4.38875V5H4Z" fill="#FFEB49"/>
<path d="M3.49374 4.51625C3.61174 4.54937 3.72774 4.59531 3.84024 4.65312C3.89449 4.68094 3.94774 4.71187 3.99999 4.74531V5H1.60849C1.76574 4.86969 1.93274 4.75562 2.11374 4.66437C2.55099 4.44344 3.03549 4.38719 3.49374 4.51625Z" fill="#FFF558"/>
<path d="M3.28824 4.77375C3.47649 4.81313 3.66049 4.88969 3.83024 5H2.02274C2.41699 4.77813 2.86174 4.68438 3.28824 4.77375Z" fill="#FFFF66"/>
</g>
<defs>
<clipPath id="clip0">
<rect width="4" height="5" fill="white"/>
</clipPath>
</defs>
</svg>
