<svg width="4" height="6" viewBox="0 0 4 6" fill="none" xmlns="http://www.w3.org/2000/svg">
<g clip-path="url(#clip0)">
<path d="M1.21492 3.76452C0.941691 3.71002 0.656459 3.68402 0.376726 3.71602C0.248734 3.73027 0.122492 3.75752 0 3.79952V4.00002H2.10937C1.81964 3.91702 1.5324 3.82977 1.24042 3.76952C1.23192 3.76777 1.22342 3.76627 1.21492 3.76452Z" fill="#FFB100"/>
<path d="M3.99975 2H0V3.7995C0.122492 3.7575 0.248734 3.73 0.376726 3.71575C0.656459 3.684 0.941691 3.70975 1.21492 3.76425C1.22342 3.766 1.23192 3.76775 1.24042 3.76925C1.5324 3.82925 1.81964 3.91675 2.10937 3.99975H3.99975V2Z" fill="#FFB800"/>
<path d="M1.19593 3.4525C1.20392 3.4545 1.21192 3.45675 1.21967 3.45875C1.71014 3.59 2.19136 3.7925 2.70333 3.90025C3.1388 3.99175 3.57703 3.97325 3.99975 3.87475V2H0V3.43725C0.130742 3.39325 0.266233 3.368 0.402725 3.36C0.670958 3.3435 0.939191 3.3855 1.19593 3.4525Z" fill="#FFBF00"/>
<path d="M0 2V3.0735C0.138991 3.0275 0.283732 3.00525 0.428473 3.00425C0.685457 3.00225 0.936441 3.061 1.17668 3.1405C1.18418 3.143 1.19143 3.1455 1.19893 3.148C1.6579 3.303 2.11312 3.51325 2.60484 3.62825C3.07156 3.7375 3.54553 3.71425 3.9995 3.59675V2H0Z" fill="#FFC500"/>
<path d="M0.454472 2.6485C0.699956 2.6635 0.934192 2.7365 1.15768 2.82875C1.16468 2.8315 1.17143 2.8345 1.17843 2.83725C1.6059 3.01625 2.03512 3.2335 2.50659 3.3565C3.00356 3.486 3.51503 3.4585 3.99975 3.3195V2H0V2.708C0.147491 2.659 0.301481 2.63925 0.454472 2.6485Z" fill="#FFCC00"/>
<path d="M3.99975 2H0V2.34075C0.15574 2.2885 0.31923 2.272 0.48047 2.29275C0.714455 2.323 0.931692 2.412 1.13868 2.51675C1.14518 2.52 1.15143 2.52325 1.15793 2.5265C1.5539 2.72925 1.95713 2.95375 2.4086 3.0845C2.93482 3.237 3.48553 3.207 4 3.043V2H3.99975Z" fill="#FFD624"/>
<path d="M1.13719 2.21575C1.50167 2.4425 1.87889 2.67325 2.31012 2.8125C2.83158 2.981 3.3883 2.9645 3.90477 2.79925C3.93676 2.789 3.96826 2.77825 4.00001 2.767V2H0.720215C0.860206 2.05325 0.991948 2.1265 1.11944 2.205C1.12544 2.2085 1.13119 2.21225 1.13719 2.21575Z" fill="#FFE038"/>
<path d="M3.99973 2H1.2449C1.54014 2.2145 1.85362 2.41125 2.21184 2.5405C2.69131 2.7135 3.21178 2.72725 3.69925 2.59325C3.80124 2.56525 3.90199 2.53025 3.99998 2.489V2H3.99973Z" fill="#FFEB49"/>
<path d="M3.49353 2.387C3.61152 2.3605 3.72752 2.32375 3.84001 2.2775C3.89426 2.25525 3.9475 2.2305 3.99975 2.20375V2H1.6084C1.76564 2.10425 1.93263 2.1955 2.11362 2.2685C2.55084 2.44525 3.03531 2.49025 3.49353 2.387Z" fill="#FFF558"/>
<path d="M3.28803 2.181C3.47627 2.1495 3.66026 2.08825 3.83 2H2.02261C2.41684 2.1775 2.86156 2.2525 3.28803 2.181Z" fill="#FFFF66"/>
<path d="M1.215 4.23549C0.94175 4.28999 0.6565 4.31599 0.37675 4.28399C0.24875 4.26974 0.1225 4.24249 0 4.20049V3.99999H2.1095C1.81975 4.08299 1.5325 4.17024 1.2405 4.23049C1.232 4.23224 1.2235 4.23374 1.215 4.23549Z" fill="#FFB100"/>
<path d="M4 6H0V4.20052C0.1225 4.24252 0.24875 4.27002 0.37675 4.28427C0.6565 4.31602 0.94175 4.29027 1.215 4.23577C1.2235 4.23402 1.232 4.23227 1.2405 4.23077C1.5325 4.17077 1.81975 4.08327 2.1095 4.00027H4V6Z" fill="#FFB800"/>
<path d="M1.196 4.54752C1.204 4.54552 1.212 4.54327 1.21975 4.54127C1.71025 4.41002 2.1915 4.20752 2.7035 4.09977C3.139 4.00827 3.57725 4.02677 4 4.12527V6H0V4.56277C0.13075 4.60677 0.26625 4.63202 0.40275 4.64002C0.671 4.65652 0.93925 4.61452 1.196 4.54752Z" fill="#FFBF00"/>
<path d="M0 6V4.92651C0.139 4.97251 0.28375 4.99476 0.4285 4.99576C0.6855 4.99776 0.9365 4.93901 1.17675 4.85951C1.18425 4.85701 1.1915 4.85451 1.199 4.85201C1.658 4.69702 2.11325 4.48677 2.605 4.37177C3.07175 4.26252 3.54575 4.28577 3.99975 4.40327V6H0Z" fill="#FFC500"/>
<path d="M0.4545 5.35151C0.7 5.33651 0.93425 5.26351 1.15775 5.17126C1.16475 5.16851 1.1715 5.16551 1.1785 5.16276C1.606 4.98376 2.03525 4.76651 2.50675 4.64352C3.00375 4.51402 3.51525 4.54152 4 4.68052V6H0V5.29201C0.1475 5.34101 0.3015 5.36076 0.4545 5.35151Z" fill="#FFCC00"/>
<path d="M4 6H0V5.65925C0.15575 5.7115 0.31925 5.728 0.4805 5.70725C0.7145 5.677 0.93175 5.588 1.13875 5.48326C1.14525 5.48001 1.1515 5.47676 1.158 5.47351C1.554 5.27076 1.95725 5.04626 2.40875 4.91551C2.935 4.76301 3.48575 4.79301 4.00025 4.95701V6H4Z" fill="#FFD624"/>
<path d="M1.13725 5.78425C1.50175 5.55751 1.879 5.32676 2.31025 5.18751C2.83175 5.01901 3.3885 5.03551 3.905 5.20076C3.937 5.21101 3.96849 5.22176 4.00024 5.23301V6H0.720245C0.860245 5.94675 0.991995 5.8735 1.1195 5.795C1.1255 5.7915 1.13125 5.78775 1.13725 5.78425Z" fill="#FFE038"/>
<path d="M4 6H1.245C1.54025 5.7855 1.85375 5.58876 2.212 5.45951C2.6915 5.28651 3.212 5.27276 3.6995 5.40676C3.8015 5.43476 3.90225 5.46976 4.00025 5.51101V6H4Z" fill="#FFEB49"/>
<path d="M3.49374 5.613C3.61174 5.6395 3.72774 5.67625 3.84024 5.7225C3.89449 5.74475 3.94774 5.7695 3.99999 5.79625V6H1.60849C1.76574 5.89575 1.93274 5.8045 2.11374 5.7315C2.55099 5.55476 3.03549 5.50976 3.49374 5.613Z" fill="#FFF558"/>
<path d="M3.28824 5.819C3.47649 5.8505 3.66049 5.91175 3.83024 6H2.02274C2.41699 5.8225 2.86174 5.7475 3.28824 5.819Z" fill="#FFFF66"/>
<path d="M1.21492 0.235476C0.941691 0.289976 0.656459 0.315976 0.376726 0.283976C0.248734 0.269726 0.122492 0.242476 0 0.200476V-2.41785e-05H2.10937C1.81964 0.0829758 1.5324 0.170226 1.24042 0.230476C1.23192 0.232226 1.22342 0.233726 1.21492 0.235476Z" fill="#FFB100"/>
<path d="M3.99975 2H0V0.2005C0.122492 0.2425 0.248734 0.27 0.376726 0.28425C0.656459 0.316 0.941691 0.29025 1.21492 0.23575C1.22342 0.234 1.23192 0.23225 1.24042 0.23075C1.5324 0.17075 1.81964 0.0832498 2.10937 0.000249797H3.99975V2Z" fill="#FFB800"/>
<path d="M1.19593 0.5475C1.20392 0.5455 1.21192 0.54325 1.21967 0.54125C1.71014 0.41 2.19136 0.2075 2.70333 0.0997499C3.1388 0.00824992 3.57703 0.0267498 3.99975 0.12525V2H0V0.56275C0.130742 0.60675 0.266233 0.632 0.402725 0.64C0.670958 0.6565 0.939191 0.6145 1.19593 0.5475Z" fill="#FFBF00"/>
<path d="M0 2V0.9265C0.138991 0.9725 0.283732 0.99475 0.428473 0.99575C0.685457 0.99775 0.936441 0.939 1.17668 0.8595C1.18418 0.857 1.19143 0.8545 1.19893 0.852C1.6579 0.697 2.11312 0.48675 2.60484 0.37175C3.07156 0.2625 3.54553 0.28575 3.9995 0.40325V2H0Z" fill="#FFC500"/>
<path d="M0.454472 1.3515C0.699956 1.3365 0.934192 1.2635 1.15768 1.17125C1.16468 1.1685 1.17143 1.1655 1.17843 1.16275C1.6059 0.98375 2.03512 0.7665 2.50659 0.6435C3.00356 0.514 3.51503 0.5415 3.99975 0.6805V2H0V1.292C0.147491 1.341 0.301481 1.36075 0.454472 1.3515Z" fill="#FFCC00"/>
<path d="M3.99975 2H0V1.65925C0.15574 1.7115 0.31923 1.728 0.48047 1.70725C0.714455 1.677 0.931692 1.588 1.13868 1.48325C1.14518 1.48 1.15143 1.47675 1.15793 1.4735C1.5539 1.27075 1.95713 1.04625 2.4086 0.9155C2.93482 0.763 3.48553 0.793 4 0.957V2H3.99975Z" fill="#FFD624"/>
<path d="M1.13722 1.78425C1.5017 1.5575 1.87892 1.32675 2.31015 1.1875C2.83161 1.019 3.38833 1.0355 3.9048 1.20075C3.93679 1.211 3.96829 1.22175 4.00004 1.233V2H0.720245C0.860237 1.94675 0.991978 1.8735 1.11947 1.795C1.12547 1.7915 1.13122 1.78775 1.13722 1.78425Z" fill="#FFE038"/>
<path d="M3.99982 2H1.245C1.54023 1.7855 1.85371 1.58875 2.21193 1.4595C2.6914 1.2865 3.21187 1.27275 3.69934 1.40675C3.80134 1.43475 3.90208 1.46975 4.00007 1.511V2H3.99982Z" fill="#FFEB49"/>
<path d="M3.49362 1.613C3.61161 1.6395 3.72761 1.67625 3.8401 1.7225C3.89435 1.74475 3.94759 1.7695 3.99984 1.79625V2H1.60849C1.76573 1.89575 1.93272 1.8045 2.11371 1.7315C2.55093 1.55475 3.0354 1.50975 3.49362 1.613Z" fill="#FFF558"/>
<path d="M3.28816 1.819C3.47639 1.8505 3.66038 1.91175 3.83012 2H2.02274C2.41696 1.8225 2.86168 1.7475 3.28816 1.819Z" fill="#FFFF66"/>
</g>
</svg>
