<?xml version="1.0" encoding="iso-8859-1"?>
<!-- Generator: Adobe Illustrator 19.0.0, SVG Export Plug-In . SVG Version: 6.00 Build 0)  -->
<svg version="1.1" id="Layer_1" xmlns="http://www.w3.org/2000/svg" xmlns:xlink="http://www.w3.org/1999/xlink" x="0px" y="0px"
	 viewBox="0 0 297 297" style="enable-background:new 0 0 297 297;" xml:space="preserve">
<g>
	<g>
		<circle style="fill:#5B48A2;" cx="148.5" cy="148.5" r="148.5"/>
	</g>
	<g>
		<path style="fill:#41377C;" d="M83.57,221.764l74.896,74.896c73.878-4.897,132.978-63.814,138.157-137.615l-99.931-99.931
			L83.57,221.764z"/>
	</g>
	<g>
		<path style="fill:#DA768E;" d="M252.583,132.75h-9.619c-7.484-19.855-23.73-36.474-44.965-46.71V58.5
			c0,0-18.369-2.101-28.345,18.394C162.838,75.658,155.762,75,148.5,75c-38.118,0-71.199,17.956-87.743,44.268
			c-1.281-0.463-2.38-1.137-3.296-2.043c-3.438-3.396-3.462-9.019-3.461-9.161c0.035-2.474-1.935-4.515-4.411-4.563
			c-2.508-0.068-4.538,1.925-4.588,4.41c-0.02,0.962-0.012,9.572,6.057,15.641c1.55,1.551,3.341,2.752,5.336,3.644
			C51.945,136.577,49.5,146.8,49.5,157.5c0,24.432,12.749,46.38,33,61.486v27.847c0,5.339,4.328,9.667,9.667,9.667h13.667
			c5.339,0,9.667-4.328,9.667-9.667v-11.534c10.323,3.041,21.428,4.701,33,4.701s22.677-1.66,33-4.701v11.534
			c0,5.339,4.328,9.667,9.667,9.667h13.667c5.339,0,9.667-4.328,9.667-9.667v-27.847c13.104-9.775,23.066-22.412,28.465-36.736
			h9.619c6.305,0,11.417-5.111,11.417-11.417v-26.667C264,137.861,258.889,132.75,252.583,132.75z"/>
	</g>
	<g>
		<circle style="fill:#595155;" cx="206.25" cy="132.75" r="8.25"/>
	</g>
	<g>
		<path style="fill:#5E345E;" d="M159.5,99h-28c-2.485,0-4.5-2.015-4.5-4.5s2.015-4.5,4.5-4.5h28c2.485,0,4.5,2.015,4.5,4.5
			S161.985,99,159.5,99z"/>
	</g>
	<g>
		<circle style="fill:#FFCD02;" cx="148.5" cy="42" r="25.5"/>
	</g>
	<g>
		<circle style="fill:#F9B65F;" cx="148.5" cy="42" r="19.125"/>
	</g>
</g>
<g>
</g>
<g>
</g>
<g>
</g>
<g>
</g>
<g>
</g>
<g>
</g>
<g>
</g>
<g>
</g>
<g>
</g>
<g>
</g>
<g>
</g>
<g>
</g>
<g>
</g>
<g>
</g>
<g>
</g>
</svg>
