<svg width="512" height="512" viewBox="0 0 512 512" fill="none" xmlns="http://www.w3.org/2000/svg">
    <g id="printer 1" clip-path="url(#clip0)">
        <g id="screw">
            <path id="Vector" d="M123 407H78V452H123V407Z" fill="#8D8E8C" />
            <path id="Vector_2" d="M115 404H85V407H115V404Z" fill="#999999" />
            <path id="test" d="M105 42H96V404H105V42Z" fill="#8D8E8C" />
        </g>
        <g id="body">
            <path id="Vector_3" d="M479 452H69V512H479V452Z" fill="#282828" />
            <path id="Vector_4" d="M84 57H69V437H84V57Z" fill="#CDCCCC" />
            <path id="Vector_5" d="M464 437H84V452H464V437Z" fill="#CDCCCC" />
            <path id="Vector_6" d="M84 437H69V452H84V437Z" fill="#323232" />
            <path id="Vector_7" d="M479 437H464V452H479V437Z" fill="#323232" />
            <path id="Vector_8" d="M479 57H464V437H479V57Z" fill="#CDCCCC" />
            <path id="Vector_9" d="M464 42H84V57H464V42Z" fill="#CDCCCC" />
            <path id="Vector_10" d="M84 42H69V57H84V42Z" fill="#323232" />
            <path id="Vector_11" d="M479 42H464V57H479V42Z" fill="#323232" />
        </g>
        <g id="corner">
            <g id="Group">
                <path id="Vector_12" d="M89 387H84V437H89V387Z" fill="#5C5C5C" />
                <path id="Vector_13" d="M134 432H84V437H134V432Z" fill="#5C5C5C" />
                <path id="Vector_14" d="M89.2083 390.924L84.4347 395.697L125.612 436.875L130.386 432.101L89.2083 390.924Z" fill="#5C5C5C" />
            </g>
            <g id="Group_2">
                <path id="Vector_15" d="M464 432H414V437H464V432Z" fill="#5C5C5C" />
                <path id="Vector_16" d="M464 387H459V437H464V387Z" fill="#5C5C5C" />
                <path id="Vector_17" d="M417.966 431.801L422.739 436.576L463.922 395.404L459.149 390.63L417.966 431.801Z" fill="#5C5C5C" />
            </g>
            <g id="Group_3">
                <path id="Vector_18" d="M134 57H84V62H134V57Z" fill="#5C5C5C" />
                <path id="Vector_19" d="M89 57H84V107H89V57Z" fill="#5C5C5C" />
                <path id="Vector_20" d="M130.052 62.2035L125.279 57.4292L84.0962 98.6006L88.8691 103.375L130.052 62.2035Z" fill="#5C5C5C" />
            </g>
            <g id="Group_4">
                <path id="Vector_21" d="M464 57H459V107H464V57Z" fill="#5C5C5C" />
                <path id="Vector_22" d="M464 57H414V62H464V57Z" fill="#5C5C5C" />
                <path id="Vector_23" d="M458.79 103.041L463.564 98.2678L422.393 57.0847L417.618 61.8577L458.79 103.041Z" fill="#5C5C5C" />
            </g>
        </g>
        <g id="bed">
            <path id="Vector_24" d="M394 393H155V401H394V393Z" fill="#1081B0" />
            <path id="Vector_25" d="M211 401H196V407H211V401Z" fill="#8D8E8C" />
            <path id="Vector_26" d="M352 401H337V407H352V401Z" fill="#8D8E8C" />
            <path id="Vector_27" d="M372 407H175V460H372V407Z" fill="#5C5C5C" />
        </g>
        <g id="z axis">
            <path id="Vector_28" d="M462 170H86V181H462V170Z" fill="#CDCCCC" />
            <path id="Vector_29" d="M452 192H117V201H452V192Z" fill="#8D8E8C" />
            <path id="Vector_30" d="M452 218H117V227H452V218Z" fill="#8D8E8C" />
            <path id="Vector_31" d="M475 182H452V237H475V182Z" fill="#323232" />
            <path id="Vector_32" d="M117 182H73V237H117V182Z" fill="#323232" />
            <path id="Vector_33" d="M86 248C86 250.762 84.578 253 82.273 253H71.423C69.119 253 67 250.762 67 248V238C67 235.239 69.119 233 71.423 233H82.274C84.579 233 86.001 235.239 86.001 238V248H86Z" fill="#323232" />
            <path id="Vector_34" d="M86 182C86 184.761 84.578 187 82.273 187H71.423C69.119 187 67 184.761 67 182V172C67 169.239 69.119 167 71.423 167H82.274C84.579 167 86.001 169.239 86.001 172V182H86Z" fill="#323232" />
            <path id="Vector_35" d="M462 248C462 250.762 463.422 253 465.727 253H476.578C478.882 253 481.001 250.762 481.001 248V238C481.001 235.239 478.882 233 476.578 233H465.727C463.422 233 462 235.239 462 238V248Z" fill="#323232" />
            <path id="Vector_36" d="M462 182C462 184.761 463.422 187 465.727 187H476.578C478.882 187 481.001 184.761 481.001 182V172C481.001 169.239 478.882 167 476.578 167H465.727C463.422 167 462 169.239 462 172V182Z" fill="#323232" />
            <path id="Vector_37" d="M69 187H24V232H69V187Z" fill="#5C5C5C" />
            <path id="Vector_38" d="M69 187H23.787L69 176.5V187Z" fill="#323232" />
            <path id="Vector_39" d="M69 232H23.787L69 242.5V232Z" fill="#323232" />
            <g id="y axis">
                <path id="Vector_40" d="M282.833 142H271L273.2 138H280.785L282.833 142Z" fill="#8D8E8C" />
                <path id="Vector_41" d="M268.833 142H257L259.2 138H266.785L268.833 142Z" fill="#8D8E8C" />
                <path id="Vector_42" d="M277 142C277 41.4025 448.302 -40 660 -40" stroke="#FA9C1D" />
                <path id="Vector_43" d="M290.5 142C290.5 67.3808 454.802 7 656 7" stroke="#1E1E1E" stroke-width="1.25" />
                <path id="Vector_44" d="M263 142C263 48.5881 447.273 -27 675 -27" stroke="#4A4C4E" />
                <path id="Vector_45" d="M306 187H247V233H306V187Z" fill="#CDCCCC" />
                <path id="Vector_46" d="M306 187H247V190H306V187Z" fill="#B3B3B3" />
                <path id="Vector_47" d="M299 142H254V187H299V142Z" fill="#5C5C5C" />
                <path id="Vector_48" d="M285 190H269V222H285V190Z" fill="#323232" />
                <path id="Vector_49" d="M283.688 224H270.563L269 222H285L283.688 224Z" fill="#323232" />
                <path id="Vector_50" d="M285 224H269V232H285V224Z" fill="#FFCB00" />
                <path id="Vector_51" d="M271.992 232L276.906 234.938L281.82 232H271.992Z" fill="#FFCB00" />
                <path id="Vector_52" d="M270 196H268V197H270V196Z" fill="#CDCCCC" />
                <path id="Vector_53" d="M270 199H268V200H270V199Z" fill="#CDCCCC" />
                <path id="Vector_54" d="M270 202H268V203H270V202Z" fill="#CDCCCC" />
                <path id="Vector_55" d="M270 205H268V206H270V205Z" fill="#CDCCCC" />
                <path id="Vector_56" d="M270 208H268V209H270V208Z" fill="#CDCCCC" />
                <path id="Vector_57" d="M286 196H284V197H286V196Z" fill="#CDCCCC" />
                <path id="Vector_58" d="M286 199H284V200H286V199Z" fill="#CDCCCC" />
                <path id="Vector_59" d="M286 202H284V203H286V202Z" fill="#CDCCCC" />
                <path id="Vector_60" d="M286 205H284V206H286V205Z" fill="#CDCCCC" />
                <path id="Vector_61" d="M286 208H284V209H286V208Z" fill="#CDCCCC" />
            </g>
        </g>
    </g>
    <defs>
        <clipPath id="clip0">
            <rect width="512" height="512" fill="white" />
        </clipPath>
    </defs>
</svg>
