<?xml version="1.0" encoding="utf-8"?>
<svg xmlns="http://www.w3.org/2000/svg" xmlns:xlink="http://www.w3.org/1999/xlink" viewBox="0 0 1920 1008" style="z-index:1;margin-right:-2px;display:block;background-repeat-y:initial;background-repeat-x:initial;animation-play-state:paused" height="100%" preserveAspectRatio="xMinYMin slice" width="100%" >
    <g transform="translate(960,454.5) scale(-1,1) translate(-960,-454.5)" style="transform:matrix(-1, 0, 0, 1, 1920, 0);animation-play-state:paused">
        <linearGradient id="lg-0.09538325366703315" x1="0" x2="1" y1="0" y2="0" style="animation-play-state:paused">
            <stop stop-color="#07b0f2" offset="0" style="animation-play-state:paused"></stop>


            <stop stop-color="#27cdf2" offset="1" style="animation-play-state:paused"></stop>
        </linearGradient>
        <path d="M 0 0 L 0 949.514 Q 192 895.878 384 851.788 T 768 776.791 T 1152 606.065 T 1536 530.277 T 1920 386.767 L 1920 0 Z" fill="url(#lg-0.09538325366703315)" opacity="0.4" style="opacity:0.4;animation-play-state:paused"></path>
        <path d="M 0 0 L 0 986.671 Q 192 901.906 384 866.403 T 768 788.93 T 1152 683.417 T 1536 575.564 T 1920 437.264 L 1920 0 Z" fill="url(#lg-0.09538325366703315)" opacity="0.4" style="opacity:0.4;animation-play-state:paused"></path>
        <path d="M 0 0 L 0 1006.53 Q 192 866.082 384 828.736 T 768 761.407 T 1152 648.473 T 1536 591.312 T 1920 472.258 L 1920 0 Z" fill="url(#lg-0.09538325366703315)" opacity="0.4" style="opacity:0.4;animation-play-state:paused"></path>
        <path d="M 0 0 L 0 953.528 Q 192 877.673 384 848.561 T 768 734.429 T 1152 676.688 T 1536 536.679 T 1920 492.169 L 1920 0 Z" fill="url(#lg-0.09538325366703315)" opacity="0.4" style="opacity:0.4;animation-play-state:paused"></path>
        <path d="M 0 0 L 0 927.74 Q 192 888.596 384 852.289 T 768 733.186 T 1152 691.636 T 1536 601.805 T 1920 489.959 L 1920 0 Z" fill="url(#lg-0.09538325366703315)" opacity="0.4" style="opacity:0.4;animation-play-state:paused"></path>
    </g>
</svg>